<?xml version="1.0" encoding="UTF-8" standalone="no"?>
<!DOCTYPE svg PUBLIC "-//W3C//DTD SVG 1.1//EN"
 "http://www.w3.org/Graphics/SVG/1.1/DTD/svg11.dtd">
<!-- Generated by graphviz version 2.43.0 (0)
 -->
<!-- Title: %3 Pages: 1 -->
<svg width="436pt" height="290pt"
 viewBox="0.00 0.00 436.00 289.61" xmlns="http://www.w3.org/2000/svg" xmlns:xlink="http://www.w3.org/1999/xlink">
<g id="graph0" class="graph" transform="scale(1 1) rotate(0) translate(4 285.61)">

<polygon fill="white" stroke="transparent" points="-4,4 -4,-285.61 432,-285.61 432,4 -4,4"/>
<g id="clust1" class="cluster">

<polygon fill="none" stroke="white" points="8,-8 8,-273.61 194,-273.61 194,-8 8,-8"/>
<text text-anchor="middle" x="101" y="-261.61" font-family="Helvetica,sans-Serif" font-size="10.00">NEEDED Lists</text>
</g>
<g id="clust7" class="cluster">

<polygon fill="none" stroke="white" points="240,-70.87 240,-273.61 420,-273.61 420,-70.87 240,-70.87"/>
<text text-anchor="middle" x="330" y="-261.61" font-family="Helvetica,sans-Serif" font-size="10.00">Dependency Graph</text>
</g>
<!-- a1 -->
<g id="node1" class="node">

<polygon fill="none" stroke="black" points="67.5,-236.61 26.5,-236.61 26.5,-214.61 67.5,-214.61 67.5,-236.61"/>
<text text-anchor="middle" x="47" y="-223.11" font-family="Helvetica,sans-Serif" font-size="10.00">a.out</text>
</g>
<!-- b1 -->
<g id="node2" class="node">

<ellipse fill="none" stroke="black" cx="47" cy="-165.18" rx="18" ry="13.37"/>
<text text-anchor="middle" x="47" y="-162.68" font-family="Helvetica,sans-Serif" font-size="10.00">b</text>
</g>
<!-- a1&#45;&gt;b1 -->
<g id="edge1" class="edge">

<path fill="none" stroke="black" d="M47,-214.43C47,-207.36 47,-197.67 47,-188.82"/>
<polygon fill="black" stroke="black" points="50.5,-188.68 47,-178.68 43.5,-188.68 50.5,-188.68"/>
</g>
<!-- b2 -->
<g id="node5" class="node">

<polygon fill="none" stroke="black" points="122,-236.61 86,-236.61 86,-214.61 122,-214.61 122,-236.61"/>
<text text-anchor="middle" x="104" y="-223.11" font-family="Helvetica,sans-Serif" font-size="10.00">b</text>
</g>
<!-- a1&#45;&gt;b2 -->
<!-- d1 -->
<g id="node3" class="node">

<ellipse fill="none" stroke="black" cx="47" cy="-102.31" rx="18" ry="13.37"/>
<text text-anchor="middle" x="47" y="-99.81" font-family="Helvetica,sans-Serif" font-size="10.00">d</text>
</g>
<!-- b1&#45;&gt;d1 -->
<g id="edge2" class="edge">

<path fill="none" stroke="black" d="M47,-151.56C47,-144.22 47,-134.73 47,-126.12"/>
<polygon fill="black" stroke="black" points="50.5,-125.9 47,-115.9 43.5,-125.9 50.5,-125.9"/>
</g>
<!-- e1 -->
<g id="node4" class="node">

<ellipse fill="none" stroke="black" cx="47" cy="-39.44" rx="18" ry="13.37"/>
<text text-anchor="middle" x="47" y="-36.94" font-family="Helvetica,sans-Serif" font-size="10.00">e</text>
</g>
<!-- d1&#45;&gt;e1 -->
<g id="edge3" class="edge">

<path fill="none" stroke="black" d="M47,-88.69C47,-81.35 47,-71.86 47,-63.25"/>
<polygon fill="black" stroke="black" points="50.5,-63.03 47,-53.03 43.5,-63.03 50.5,-63.03"/>
</g>
<!-- d2 -->
<g id="node6" class="node">

<ellipse fill="none" stroke="black" cx="104" cy="-165.18" rx="18" ry="13.37"/>
<text text-anchor="middle" x="104" y="-162.68" font-family="Helvetica,sans-Serif" font-size="10.00">d</text>
</g>
<!-- b2&#45;&gt;d2 -->
<g id="edge4" class="edge">

<path fill="none" stroke="black" d="M104,-214.43C104,-207.36 104,-197.67 104,-188.82"/>
<polygon fill="black" stroke="black" points="107.5,-188.68 104,-178.68 100.5,-188.68 107.5,-188.68"/>
</g>
<!-- d3 -->
<g id="node8" class="node">

<polygon fill="none" stroke="black" points="176,-236.61 140,-236.61 140,-214.61 176,-214.61 176,-236.61"/>
<text text-anchor="middle" x="158" y="-223.11" font-family="Helvetica,sans-Serif" font-size="10.00">d</text>
</g>
<!-- b2&#45;&gt;d3 -->
<!-- f2 -->
<g id="node7" class="node">

<ellipse fill="none" stroke="black" cx="104" cy="-102.31" rx="18" ry="13.37"/>
<text text-anchor="middle" x="104" y="-99.81" font-family="Helvetica,sans-Serif" font-size="10.00">f</text>
</g>
<!-- d2&#45;&gt;f2 -->
<g id="edge5" class="edge">

<path fill="none" stroke="black" d="M104,-151.56C104,-144.22 104,-134.73 104,-126.12"/>
<polygon fill="black" stroke="black" points="107.5,-125.9 104,-115.9 100.5,-125.9 107.5,-125.9"/>
</g>
<!-- e3 -->
<g id="node9" class="node">

<ellipse fill="none" stroke="black" cx="158" cy="-165.18" rx="18" ry="13.37"/>
<text text-anchor="middle" x="158" y="-162.68" font-family="Helvetica,sans-Serif" font-size="10.00">e</text>
</g>
<!-- d3&#45;&gt;e3 -->
<g id="edge6" class="edge">

<path fill="none" stroke="black" d="M158,-214.43C158,-207.36 158,-197.67 158,-188.82"/>
<polygon fill="black" stroke="black" points="161.5,-188.68 158,-178.68 154.5,-188.68 161.5,-188.68"/>
</g>
<!-- g3 -->
<g id="node10" class="node">

<ellipse fill="none" stroke="black" cx="158" cy="-102.31" rx="18" ry="13.37"/>
<text text-anchor="middle" x="158" y="-99.81" font-family="Helvetica,sans-Serif" font-size="10.00">g</text>
</g>
<!-- e3&#45;&gt;g3 -->
<g id="edge7" class="edge">

<path fill="none" stroke="black" d="M158,-151.56C158,-144.22 158,-134.73 158,-126.12"/>
<polygon fill="black" stroke="black" points="161.5,-125.9 158,-115.9 154.5,-125.9 161.5,-125.9"/>
</g>
<!-- dummy -->
<!-- a.out -->
<g id="node12" class="node">

<polygon fill="none" stroke="black" points="350.5,-236.61 309.5,-236.61 309.5,-214.61 350.5,-214.61 350.5,-236.61"/>
<text text-anchor="middle" x="330" y="-223.11" font-family="Helvetica,sans-Serif" font-size="10.00">a.out</text>
</g>
<!-- b -->
<g id="node13" class="node">

<ellipse fill="none" stroke="black" cx="276" cy="-165.18" rx="18" ry="13.37"/>
<text text-anchor="middle" x="276" y="-162.68" font-family="Helvetica,sans-Serif" font-size="10.00">b</text>
</g>
<!-- a.out&#45;&gt;b -->
<g id="edge10" class="edge">

<path fill="none" stroke="black" d="M320.59,-214.43C312.87,-206.07 301.74,-194.03 292.53,-184.07"/>
<polygon fill="black" stroke="black" points="295.02,-181.6 285.66,-176.63 289.88,-186.35 295.02,-181.6"/>
</g>
<!-- d -->
<g id="node14" class="node">

<ellipse fill="none" stroke="black" cx="330" cy="-165.18" rx="18" ry="13.37"/>
<text text-anchor="middle" x="330" y="-162.68" font-family="Helvetica,sans-Serif" font-size="10.00">d</text>
</g>
<!-- a.out&#45;&gt;d -->
<g id="edge11" class="edge">

<path fill="none" stroke="black" d="M330,-214.43C330,-207.36 330,-197.67 330,-188.82"/>
<polygon fill="black" stroke="black" points="333.5,-188.68 330,-178.68 326.5,-188.68 333.5,-188.68"/>
</g>
<!-- e -->
<g id="node15" class="node">

<ellipse fill="none" stroke="black" cx="384" cy="-165.18" rx="18" ry="13.37"/>
<text text-anchor="middle" x="384" y="-162.68" font-family="Helvetica,sans-Serif" font-size="10.00">e</text>
</g>
<!-- a.out&#45;&gt;e -->
<g id="edge12" class="edge">

<path fill="none" stroke="black" d="M339.41,-214.43C347.13,-206.07 358.26,-194.03 367.47,-184.07"/>
<polygon fill="black" stroke="black" points="370.12,-186.35 374.34,-176.63 364.98,-181.6 370.12,-186.35"/>
</g>
<!-- b&#45;&gt;d -->
<g id="edge13" class="edge">

<path fill="none" stroke="black" d="M294.14,-165.18C296.62,-165.18 299.1,-165.18 301.59,-165.18"/>
<polygon fill="black" stroke="black" points="301.79,-168.68 311.79,-165.18 301.79,-161.68 301.79,-168.68"/>
</g>
<!-- f -->
<g id="node16" class="node">

<ellipse fill="none" stroke="black" cx="276" cy="-102.31" rx="18" ry="13.37"/>
<text text-anchor="middle" x="276" y="-99.81" font-family="Helvetica,sans-Serif" font-size="10.00">f</text>
</g>
<!-- b&#45;&gt;f -->
<g id="edge14" class="edge">

<path fill="none" stroke="black" d="M276,-151.56C276,-144.22 276,-134.73 276,-126.12"/>
<polygon fill="black" stroke="black" points="279.5,-125.9 276,-115.9 272.5,-125.9 279.5,-125.9"/>
</g>
<!-- d&#45;&gt;e -->
<g id="edge15" class="edge">

<path fill="none" stroke="black" d="M348.14,-165.18C350.62,-165.18 353.1,-165.18 355.59,-165.18"/>
<polygon fill="black" stroke="black" points="355.79,-168.68 365.79,-165.18 355.79,-161.68 355.79,-168.68"/>
</g>
<!-- g -->
<g id="node17" class="node">

<ellipse fill="none" stroke="black" cx="330" cy="-102.31" rx="18" ry="13.37"/>
<text text-anchor="middle" x="330" y="-99.81" font-family="Helvetica,sans-Serif" font-size="10.00">g</text>
</g>
<!-- d&#45;&gt;g -->
<g id="edge16" class="edge">

<path fill="none" stroke="black" d="M330,-151.56C330,-144.22 330,-134.73 330,-126.12"/>
<polygon fill="black" stroke="black" points="333.5,-125.9 330,-115.9 326.5,-125.9 333.5,-125.9"/>
</g>
</g>
</svg>
