<?xml version="1.0" encoding="UTF-8" standalone="no"?>
<!DOCTYPE svg PUBLIC "-//W3C//DTD SVG 1.1//EN"
 "http://www.w3.org/Graphics/SVG/1.1/DTD/svg11.dtd">
<!-- Generated by graphviz version 2.43.0 (0)
 -->
<!-- Title: %43 Pages: 1 -->
<svg width="426pt" height="118pt"
 viewBox="0.00 0.00 425.98 117.94" xmlns="http://www.w3.org/2000/svg" xmlns:xlink="http://www.w3.org/1999/xlink">
<g id="page0,1_graph0" class="graph" transform="scale(1 1) rotate(0) translate(4 113.94)">

<polygon fill="white" stroke="transparent" points="-4,4 -4,-113.94 421.98,-113.94 421.98,4 -4,4"/>
<text text-anchor="middle" x="208.99" y="-97.94" font-family="Helvetica,sans-Serif" font-size="10.00">Example Orderings</text>
<!-- a0 -->
<!-- e1 -->
<g id="node5" class="node">

<ellipse fill="none" stroke="black" cx="18" cy="-58.44" rx="18" ry="13.37"/>
<text text-anchor="middle" x="18" y="-55.94" font-family="Helvetica,sans-Serif" font-size="10.00">e</text>
</g>
<!-- a0&#45;&gt;e1 -->
<!-- a1 -->
<g id="node2" class="node">

<ellipse fill="none" stroke="black" cx="388.99" cy="-58.44" rx="28.98" ry="13.37"/>
<text text-anchor="middle" x="388.99" y="-55.94" font-family="Helvetica,sans-Serif" font-size="10.00">a.out</text>
</g>
<!-- b1 -->
<g id="node3" class="node">

<ellipse fill="none" stroke="black" cx="306" cy="-58.44" rx="18" ry="13.37"/>
<text text-anchor="middle" x="306" y="-55.94" font-family="Helvetica,sans-Serif" font-size="10.00">b</text>
</g>
<!-- b1&#45;&gt;a1 -->
<g id="edge5" class="edge">

<path fill="none" stroke="black" d="M324.18,-58.44C331.59,-58.44 340.57,-58.44 349.44,-58.44"/>
<polygon fill="black" stroke="black" points="349.69,-61.94 359.69,-58.44 349.69,-54.94 349.69,-61.94"/>
</g>
<!-- d1 -->
<g id="node4" class="node">

<ellipse fill="none" stroke="black" cx="162" cy="-58.44" rx="18" ry="13.37"/>
<text text-anchor="middle" x="162" y="-55.94" font-family="Helvetica,sans-Serif" font-size="10.00">d</text>
</g>
<!-- f1 -->
<g id="node6" class="node">

<ellipse fill="none" stroke="black" cx="234" cy="-58.44" rx="18" ry="13.37"/>
<text text-anchor="middle" x="234" y="-55.94" font-family="Helvetica,sans-Serif" font-size="10.00">f</text>
</g>
<!-- d1&#45;&gt;f1 -->
<g id="edge3" class="edge">

<path fill="none" stroke="black" d="M180.3,-58.44C188.02,-58.44 197.29,-58.44 205.89,-58.44"/>
<polygon fill="black" stroke="black" points="205.9,-61.94 215.9,-58.44 205.9,-54.94 205.9,-61.94"/>
</g>
<!-- g1 -->
<g id="node7" class="node">

<ellipse fill="none" stroke="black" cx="90" cy="-58.44" rx="18" ry="13.37"/>
<text text-anchor="middle" x="90" y="-55.94" font-family="Helvetica,sans-Serif" font-size="10.00">g</text>
</g>
<!-- e1&#45;&gt;g1 -->
<g id="edge1" class="edge">

<path fill="none" stroke="black" d="M36.3,-58.44C44.02,-58.44 53.29,-58.44 61.89,-58.44"/>
<polygon fill="black" stroke="black" points="61.9,-61.94 71.9,-58.44 61.9,-54.94 61.9,-61.94"/>
</g>
<!-- g2 -->
<g id="node13" class="node">

<ellipse fill="none" stroke="black" cx="18" cy="-13.44" rx="18" ry="13.37"/>
<text text-anchor="middle" x="18" y="-10.94" font-family="Helvetica,sans-Serif" font-size="10.00">g</text>
</g>
<!-- e1&#45;&gt;g2 -->
<!-- f1&#45;&gt;b1 -->
<g id="edge4" class="edge">

<path fill="none" stroke="black" d="M252.3,-58.44C260.02,-58.44 269.29,-58.44 277.89,-58.44"/>
<polygon fill="black" stroke="black" points="277.9,-61.94 287.9,-58.44 277.9,-54.94 277.9,-61.94"/>
</g>
<!-- g1&#45;&gt;d1 -->
<g id="edge2" class="edge">

<path fill="none" stroke="black" d="M108.3,-58.44C116.02,-58.44 125.29,-58.44 133.89,-58.44"/>
<polygon fill="black" stroke="black" points="133.9,-61.94 143.9,-58.44 133.9,-54.94 133.9,-61.94"/>
</g>
<!-- a2 -->
<g id="node8" class="node">

<ellipse fill="none" stroke="black" cx="388.99" cy="-13.44" rx="28.98" ry="13.37"/>
<text text-anchor="middle" x="388.99" y="-10.94" font-family="Helvetica,sans-Serif" font-size="10.00">a.out</text>
</g>
<!-- b2 -->
<g id="node9" class="node">

<ellipse fill="none" stroke="black" cx="306" cy="-13.44" rx="18" ry="13.37"/>
<text text-anchor="middle" x="306" y="-10.94" font-family="Helvetica,sans-Serif" font-size="10.00">b</text>
</g>
<!-- b2&#45;&gt;a2 -->
<g id="edge10" class="edge">

<path fill="none" stroke="black" d="M324.18,-13.44C331.59,-13.44 340.57,-13.44 349.44,-13.44"/>
<polygon fill="black" stroke="black" points="349.69,-16.94 359.69,-13.44 349.69,-9.94 349.69,-16.94"/>
</g>
<!-- d2 -->
<g id="node10" class="node">

<ellipse fill="none" stroke="black" cx="234" cy="-13.44" rx="18" ry="13.37"/>
<text text-anchor="middle" x="234" y="-10.94" font-family="Helvetica,sans-Serif" font-size="10.00">d</text>
</g>
<!-- d2&#45;&gt;b2 -->
<g id="edge9" class="edge">

<path fill="none" stroke="black" d="M252.3,-13.44C260.02,-13.44 269.29,-13.44 277.89,-13.44"/>
<polygon fill="black" stroke="black" points="277.9,-16.94 287.9,-13.44 277.9,-9.94 277.9,-16.94"/>
</g>
<!-- e2 -->
<g id="node11" class="node">

<ellipse fill="none" stroke="black" cx="162" cy="-13.44" rx="18" ry="13.37"/>
<text text-anchor="middle" x="162" y="-10.94" font-family="Helvetica,sans-Serif" font-size="10.00">e</text>
</g>
<!-- e2&#45;&gt;d2 -->
<g id="edge8" class="edge">

<path fill="none" stroke="black" d="M180.3,-13.44C188.02,-13.44 197.29,-13.44 205.89,-13.44"/>
<polygon fill="black" stroke="black" points="205.9,-16.94 215.9,-13.44 205.9,-9.94 205.9,-16.94"/>
</g>
<!-- f2 -->
<g id="node12" class="node">

<ellipse fill="none" stroke="black" cx="90" cy="-13.44" rx="18" ry="13.37"/>
<text text-anchor="middle" x="90" y="-10.94" font-family="Helvetica,sans-Serif" font-size="10.00">f</text>
</g>
<!-- f2&#45;&gt;e2 -->
<g id="edge7" class="edge">

<path fill="none" stroke="black" d="M108.3,-13.44C116.02,-13.44 125.29,-13.44 133.89,-13.44"/>
<polygon fill="black" stroke="black" points="133.9,-16.94 143.9,-13.44 133.9,-9.94 133.9,-16.94"/>
</g>
<!-- g2&#45;&gt;f2 -->
<g id="edge6" class="edge">

<path fill="none" stroke="black" d="M36.3,-13.44C44.02,-13.44 53.29,-13.44 61.89,-13.44"/>
<polygon fill="black" stroke="black" points="61.9,-16.94 71.9,-13.44 61.9,-9.94 61.9,-16.94"/>
</g>
</g>
</svg>
