<?xml version="1.0" encoding="utf-8"?>
<!-- Generator: Adobe Illustrator 22.1.0, SVG Export Plug-In . SVG Version: 6.00 Build 0)  -->
<svg version="1.1" id="Layer_1" xmlns="http://www.w3.org/2000/svg" xmlns:xlink="http://www.w3.org/1999/xlink" x="0px" y="0px"
	 viewBox="0 0 130 42" style="enable-background:new 0 0 130 42;" xml:space="preserve">
<style type="text/css">
	.st0{fill:#FFFFFF;}
	.st1{fill:#008ECF;}
	.st2{fill:#101820;}
</style>
<g>
	<polygon class="st2" points="30.07,41 27.49,41 13.01,18.26 3.29,33.33 0.79,33.33 11.66,16.5 1.78,1.03 4.33,1.03 	"/>
	<polygon class="st1" points="21.66,1 13.48,13.67 15.97,13.67 24.16,1 	"/>
	<path class="st2" d="M108.57,21.29c0,3.92-0.95,6.98-2.85,9.18c-1.9,2.2-4.52,3.3-7.87,3.3c-2.11,0-3.96-0.51-5.57-1.52
		c-1.61-1.02-2.84-2.47-3.69-4.38c-0.85-1.9-1.28-4.09-1.28-6.58c0-3.92,0.95-6.97,2.85-9.16c1.9-2.19,4.51-3.28,7.82-3.28
		c3.3,0,5.89,1.11,7.77,3.33C107.63,14.39,108.57,17.43,108.57,21.29 M89.61,21.29c0,3.3,0.73,5.87,2.18,7.72
		c1.45,1.85,3.5,2.77,6.15,2.77c2.65,0,4.7-0.92,6.15-2.77c1.45-1.85,2.18-4.42,2.18-7.72c0-3.31-0.73-5.89-2.2-7.71
		c-1.47-1.83-3.52-2.74-6.18-2.74s-4.7,0.91-6.13,2.73C90.33,15.39,89.61,17.96,89.61,21.29"/>
	<path class="st2" d="M129.21,27.08c0,2.15-0.82,3.8-2.45,4.96c-1.64,1.16-3.96,1.73-6.96,1.73c-3.21,0-5.76-0.49-7.65-1.48v-2.36
		c2.42,1.21,4.96,1.81,7.65,1.81c2.37,0,4.17-0.39,5.4-1.18c1.23-0.79,1.84-1.84,1.84-3.15c0-1.21-0.49-2.22-1.47-3.05
		c-0.98-0.82-2.59-1.64-4.83-2.43c-2.4-0.87-4.09-1.62-5.06-2.24c-0.97-0.63-1.71-1.33-2.2-2.12c-0.49-0.79-0.74-1.75-0.74-2.88
		c0-1.8,0.75-3.22,2.26-4.26c1.51-1.05,3.62-1.57,6.33-1.57c2.59,0,5.05,0.49,7.38,1.46l-0.82,1.99c-2.36-0.97-4.54-1.46-6.56-1.46
		c-1.96,0-3.51,0.32-4.66,0.97c-1.15,0.65-1.72,1.55-1.72,2.7c0,1.25,0.45,2.25,1.34,3.01c0.89,0.75,2.63,1.59,5.23,2.52
		c2.17,0.78,3.74,1.48,4.73,2.11c0.99,0.63,1.73,1.34,2.22,2.13C128.96,25.07,129.21,26.01,129.21,27.08"/>
	<rect x="29.31" y="9.32" class="st2" width="2.19" height="24.02"/>
	<path class="st2" d="M31.97,2.6c0,0.87-0.7,1.57-1.57,1.57c-0.87,0-1.57-0.7-1.57-1.57c0-0.87,0.7-1.57,1.57-1.57
		C31.27,1.04,31.97,1.74,31.97,2.6"/>
	<path class="st2" d="M48.74,8.85c-0.19,0-0.37,0.01-0.55,0.01c-0.18,0-0.36-0.01-0.55-0.01c-5.56,0-8.34,2.92-8.34,8.77v15.71h2.21
		V17.76c0-2.42,0.52-4.17,1.56-5.27c1.04-1.1,2.65-1.65,4.83-1.65c0.1,0,0.2,0.01,0.3,0.01h0c0,0,0,0,0,0c0.1,0,0.2-0.01,0.3-0.01
		c2.18,0,3.79,0.55,4.83,1.65c1.04,1.1,1.56,2.85,1.56,5.27v15.58h2.21V17.62C57.08,11.78,54.3,8.85,48.74,8.85"/>
	<path class="st2" d="M72.3,33.8c0.19,0,0.37-0.01,0.55-0.01c0.18,0,0.36,0.01,0.55,0.01c5.56,0,8.34-2.92,8.34-8.77V9.32h-2.21
		v15.58c0,2.42-0.52,4.17-1.56,5.27c-1.04,1.1-2.65,1.65-4.83,1.65c-0.1,0-0.2-0.01-0.3-0.01h0c0,0,0,0,0,0
		c-0.1,0-0.2,0.01-0.3,0.01c-2.18,0-3.79-0.55-4.83-1.65c-1.04-1.1-1.56-2.85-1.56-5.27V9.32h-2.21v15.71
		C63.96,30.88,66.74,33.8,72.3,33.8"/>
</g>
</svg>
