<svg xmlns="http://www.w3.org/2000/svg" width="180" height="180" viewBox="0 0 180 180">
  <defs>
    <style>
      .cls-1 {
        fill: none;
        stroke: #231f20;
        stroke-miterlimit: 10;
      }

      .cls-2 {
        font-size: 10px;
        fill: #231f20;
        font-family: Helvetica;
      }
    </style>
  </defs>
  <g id="Drawing">
    <rect class="cls-1" x="9" y="9" width="162" height="18"/>
    <rect class="cls-1" x="9" y="27" width="162" height="18"/>
    <rect class="cls-1" x="9" y="45" width="162" height="18"/>
    <polyline class="cls-1" points="171 92 171 117 9 117 9 92"/>
    <polyline class="cls-1" points="9 88 9 63 171 63 171 88"/>
    <polyline class="cls-1" points="171 146 171 171 9 171 9 146"/>
    <polyline class="cls-1" points="9 142 9 117 171 117 171 142"/>
    <path class="cls-1" d="M168.73,88.07a1.4,1.4,0,0,1,2.25,0,1.43,1.43,0,0,0,2.2,0"/>
    <path class="cls-1" d="M168.73,92.07a1.4,1.4,0,0,1,2.25,0,1.43,1.43,0,0,0,2.2,0"/>
    <path class="cls-1" d="M6.73,88.07a1.4,1.4,0,0,1,2.25,0,1.43,1.43,0,0,0,2.2,0"/>
    <path class="cls-1" d="M6.73,92.07a1.4,1.4,0,0,1,2.25,0,1.43,1.43,0,0,0,2.2,0"/>
    <path class="cls-1" d="M6.73,142.07a1.4,1.4,0,0,1,2.25,0,1.43,1.43,0,0,0,2.2,0"/>
    <path class="cls-1" d="M6.73,146.07a1.4,1.4,0,0,1,2.25,0,1.43,1.43,0,0,0,2.2,0"/>
    <path class="cls-1" d="M168.73,142.07a1.4,1.4,0,0,1,2.25,0,1.43,1.43,0,0,0,2.2,0"/>
    <path class="cls-1" d="M168.73,146.07a1.4,1.4,0,0,1,2.25,0,1.43,1.43,0,0,0,2.2,0"/>
  </g>
  <g id="Text">
    <text class="cls-2" transform="translate(18 22.29)">namesz</text>
    <text class="cls-2" transform="translate(18 40.29)">descsz</text>
    <text class="cls-2" transform="translate(18 58.29)">type</text>
    <text class="cls-2" transform="translate(18 80.59)">name</text>
    <text class="cls-2" transform="translate(18 134.59)">desc</text>
  </g>
</svg>
