<svg xmlns="http://www.w3.org/2000/svg" width="468" height="216" viewBox="0 0 468 216">
  <defs>
    <style>
      .cls-1 {
        fill: none;
        stroke: #231f20;
        stroke-miterlimit: 10;
      }

      .cls-2, .cls-5 {
        font-size: 10px;
      }

      .cls-2, .cls-3, .cls-4, .cls-5 {
        fill: #231f20;
      }

      .cls-2, .cls-3 {
        font-family: Helvetica;
      }

      .cls-3 {
        font-size: 8px;
      }

      .cls-5 {
        font-family: Helvetica-Oblique, Helvetica;
        font-style: oblique;
      }
    </style>
  </defs>
  <g id="Drawing">
    <rect class="cls-1" x="9" y="115.58" width="20.25" height="14.21"/>
    <rect class="cls-1" x="29.25" y="115.58" width="20.25" height="14.21"/>
    <rect class="cls-1" x="49.5" y="115.58" width="20.25" height="14.21"/>
    <rect class="cls-1" x="69.75" y="115.58" width="20.25" height="14.21"/>
    <rect class="cls-1" x="9" y="80.05" width="20.25" height="14.21"/>
    <rect class="cls-1" x="29.25" y="80.05" width="20.25" height="14.21"/>
    <rect class="cls-1" x="9" y="44.53" width="20.25" height="14.21"/>
    <rect class="cls-1" x="9" y="9" width="20.25" height="14.21"/>
    <rect class="cls-1" x="29.25" y="44.53" width="20.25" height="14.21"/>
    <rect class="cls-1" x="49.5" y="80.05" width="20.25" height="14.21"/>
    <rect class="cls-1" x="69.75" y="80.05" width="20.25" height="14.21"/>
    <rect class="cls-1" x="90" y="115.58" width="20.25" height="14.21"/>
    <rect class="cls-1" x="110.25" y="115.58" width="20.25" height="14.21"/>
    <rect class="cls-1" x="130.5" y="115.58" width="20.25" height="14.21"/>
    <rect class="cls-1" x="150.75" y="115.58" width="20.25" height="14.21"/>
    <rect class="cls-1" x="297" y="115.58" width="20.25" height="14.21"/>
    <rect class="cls-1" x="317.25" y="115.58" width="20.25" height="14.21"/>
    <rect class="cls-1" x="337.5" y="115.58" width="20.25" height="14.21"/>
    <rect class="cls-1" x="357.75" y="115.58" width="20.25" height="14.21"/>
    <rect class="cls-1" x="297" y="80.05" width="20.25" height="14.21"/>
    <rect class="cls-1" x="317.25" y="80.05" width="20.25" height="14.21"/>
    <rect class="cls-1" x="297" y="44.53" width="20.25" height="14.21"/>
    <rect class="cls-1" x="297" y="9" width="20.25" height="14.21"/>
    <rect class="cls-1" x="317.25" y="44.53" width="20.25" height="14.21"/>
    <rect class="cls-1" x="337.5" y="80.05" width="20.25" height="14.21"/>
    <rect class="cls-1" x="357.75" y="80.05" width="20.25" height="14.21"/>
    <rect class="cls-1" x="378" y="115.58" width="20.25" height="14.21"/>
    <rect class="cls-1" x="398.25" y="115.58" width="20.25" height="14.21"/>
    <rect class="cls-1" x="418.5" y="115.58" width="20.25" height="14.21"/>
    <rect class="cls-1" x="438.75" y="115.58" width="20.25" height="14.21"/>
  </g>
  <g id="Text">
    <text class="cls-2" transform="translate(13.56 19.7)">01</text>
    <text class="cls-3" transform="translate(16.9 33.19)">0</text>
    <text class="cls-2" transform="translate(13.56 55.23)">02</text>
    <text class="cls-2" transform="translate(33.81 55.23)">01</text>
    <text class="cls-3" transform="translate(16.9 68.72)">0</text>
    <text class="cls-3" transform="translate(37.15 68.72)">1</text>
    <text class="cls-2" transform="translate(13.56 90.75)">04</text>
    <text class="cls-2" transform="translate(33.81 90.75)">03</text>
    <text class="cls-2" transform="translate(54.06 90.75)">02</text>
    <text class="cls-2" transform="translate(74.31 90.75)">01</text>
    <text class="cls-3" transform="translate(16.9 104.24)">0</text>
    <text class="cls-3" transform="translate(37.15 104.24)">1</text>
    <text class="cls-3" transform="translate(57.4 104.24)">2</text>
    <text class="cls-3" transform="translate(77.65 104.24)">3</text>
    <text class="cls-2" transform="translate(13.56 126.28)">08</text>
    <text class="cls-2" transform="translate(33.81 126.28)">07</text>
    <text class="cls-2" transform="translate(54.06 126.28)">06</text>
    <text class="cls-2" transform="translate(74.31 126.28)">05</text>
    <text class="cls-2" transform="translate(94.56 126.28)">04</text>
    <text class="cls-2" transform="translate(114.81 126.28)">03</text>
    <text class="cls-2" transform="translate(135.06 126.28)">02</text>
    <text class="cls-2" transform="translate(155.31 126.28)">01</text>
    <text class="cls-2" transform="translate(184.23 126.28)">0x0102030405060708</text>
    <text class="cls-2" transform="translate(206.48 90.75)">0x01020304</text>
    <text class="cls-2" transform="translate(217.6 55.23)">0x0102</text>
    <text class="cls-2" transform="translate(223.16 19.7)">0x01</text>
    <text class="cls-3" transform="translate(16.9 139.77)">0</text>
    <text class="cls-3" transform="translate(37.15 139.77)">1</text>
    <text class="cls-3" transform="translate(57.4 139.77)">2</text>
    <text class="cls-3" transform="translate(77.65 139.77)">3</text>
    <text class="cls-3" transform="translate(97.9 139.77)">4</text>
    <text class="cls-3" transform="translate(118.15 139.77)">5</text>
    <text class="cls-3" transform="translate(138.4 139.77)">6</text>
    <text class="cls-3" transform="translate(158.65 139.77)">7</text>
    <text class="cls-2" transform="translate(301.56 19.7)">01</text>
    <text class="cls-3" transform="translate(304.9 33.19)">0</text>
    <text class="cls-2" transform="translate(301.56 55.23)">01</text>
    <text class="cls-2" transform="translate(321.81 55.23)">02</text>
    <text class="cls-3" transform="translate(304.9 68.72)">0</text>
    <text class="cls-3" transform="translate(325.15 68.72)">1</text>
    <text class="cls-2" transform="translate(301.56 90.75)">01</text>
    <text class="cls-2" transform="translate(321.81 90.75)">02</text>
    <text class="cls-2" transform="translate(342.06 90.75)">03</text>
    <text class="cls-2" transform="translate(362.31 90.75)">04</text>
    <text class="cls-3" transform="translate(304.9 104.24)">0</text>
    <text class="cls-3" transform="translate(325.15 104.24)">1</text>
    <text class="cls-3" transform="translate(345.4 104.24)">2</text>
    <text class="cls-3" transform="translate(365.65 104.24)">3</text>
    <text class="cls-2" transform="translate(301.56 126.28)">01</text>
    <text class="cls-2" transform="translate(321.81 126.28)">02</text>
    <text class="cls-2" transform="translate(342.06 126.28)">03</text>
    <text class="cls-2" transform="translate(362.31 126.28)">04</text>
    <text class="cls-2" transform="translate(382.56 126.28)">05</text>
    <text class="cls-2" transform="translate(402.81 126.28)">06</text>
    <text class="cls-2" transform="translate(423.06 126.28)">07</text>
    <text class="cls-2" transform="translate(443.31 126.28)">08</text>
    <text class="cls-3" transform="translate(304.9 139.77)">0</text>
    <text class="cls-3" transform="translate(325.15 139.77)">1</text>
    <text class="cls-3" transform="translate(345.4 139.77)">2</text>
    <text class="cls-3" transform="translate(365.65 139.77)">3</text>
    <text class="cls-3" transform="translate(385.9 139.77)">4</text>
    <text class="cls-3" transform="translate(406.15 139.77)">5</text>
    <text class="cls-3" transform="translate(426.4 139.77)">6</text>
    <text class="cls-3" transform="translate(446.65 139.77)">7</text>
    <g>
      <path class="cls-4" d="M21,179.9a16.3,16.3,0,0,0-1,2.19,8,8,0,0,0-.35,2.47,7.86,7.86,0,0,0,.4,2.59,14.86,14.86,0,0,0,1,2.08h-.59c-.48-.74-.77-1.21-.89-1.42a7.46,7.46,0,0,1-.37-.84,6.81,6.81,0,0,1-.38-1.54,7.65,7.65,0,0,1-.05-.81,6.89,6.89,0,0,1,.45-2.57,14.19,14.19,0,0,1,1.2-2.15Z"/>
      <path class="cls-4" d="M24.85,184a.51.51,0,0,0,.41-.26.77.77,0,0,0,.06-.34.71.71,0,0,0-.32-.65,1.7,1.7,0,0,0-.92-.2,1.14,1.14,0,0,0-1,.37,1.18,1.18,0,0,0-.21.61h-.82a1.5,1.5,0,0,1,.63-1.35,2.56,2.56,0,0,1,1.39-.38,2.78,2.78,0,0,1,1.5.36,1.18,1.18,0,0,1,.57,1.09v3a.36.36,0,0,0,.06.22c0,.06.11.08.23.08h.13l.16,0v.65l-.31.08h-.29a.7.7,0,0,1-.66-.32,1.22,1.22,0,0,1-.16-.48,2.24,2.24,0,0,1-.77.61,2.38,2.38,0,0,1-1.1.26,1.61,1.61,0,0,1-1.19-.45,1.57,1.57,0,0,1,0-2.23,2.19,2.19,0,0,1,1.19-.49ZM23,186.4a1.09,1.09,0,0,0,.66.22,1.93,1.93,0,0,0,.9-.22,1.19,1.19,0,0,0,.73-1.16v-.71a1.3,1.3,0,0,1-.41.17,3.16,3.16,0,0,1-.5.1l-.53.07a2,2,0,0,0-.72.2.78.78,0,0,0-.41.73A.75.75,0,0,0,23,186.4Z"/>
      <path class="cls-4" d="M27.31,189.23a16.48,16.48,0,0,0,1-2.21,7.89,7.89,0,0,0,.35-2.46,8.12,8.12,0,0,0-.4-2.58,14.86,14.86,0,0,0-1-2.08h.59c.5.8.8,1.3.91,1.48a5.1,5.1,0,0,1,.34.78,6,6,0,0,1,.34,1.2,7.78,7.78,0,0,1,.1,1.15,7,7,0,0,1-.46,2.58,13.74,13.74,0,0,1-1.2,2.14Z"/>
      <path class="cls-4" d="M33.88,180h2.87a2.69,2.69,0,0,1,2.26,1,3.89,3.89,0,0,1,.72,2.42,4.94,4.94,0,0,1-.42,2.07,2.62,2.62,0,0,1-2.57,1.63H33.88Zm2.68,6.34a2.53,2.53,0,0,0,.79-.1,1.79,1.79,0,0,0,.91-.73,3.2,3.2,0,0,0,.4-1.12,4.11,4.11,0,0,0,.07-.75,3.6,3.6,0,0,0-.51-2.07,1.92,1.92,0,0,0-1.67-.74H34.86v5.51Z"/>
      <path class="cls-4" d="M43.74,184a.5.5,0,0,0,.41-.26.77.77,0,0,0,.06-.34.71.71,0,0,0-.32-.65,1.7,1.7,0,0,0-.92-.2,1.15,1.15,0,0,0-1,.37,1.18,1.18,0,0,0-.21.61H41a1.55,1.55,0,0,1,.63-1.35,2.56,2.56,0,0,1,1.39-.38,2.78,2.78,0,0,1,1.5.36,1.18,1.18,0,0,1,.57,1.09v3a.36.36,0,0,0,.06.22c0,.06.11.08.23.08h.14l.15,0v.65l-.31.08H45a.7.7,0,0,1-.66-.32,1.23,1.23,0,0,1-.15-.48,2.43,2.43,0,0,1-1.88.87,1.63,1.63,0,0,1-1.19-.45,1.59,1.59,0,0,1,0-2.23,2.19,2.19,0,0,1,1.19-.49Zm-1.85,2.37a1.09,1.09,0,0,0,.66.22,1.93,1.93,0,0,0,.9-.22,1.19,1.19,0,0,0,.73-1.16v-.71a1.21,1.21,0,0,1-.41.17,3.16,3.16,0,0,1-.5.1l-.53.07a2,2,0,0,0-.72.2.78.78,0,0,0-.41.73A.75.75,0,0,0,41.89,186.4Z"/>
      <path class="cls-4" d="M46.68,180.5h.89V182h.83v.72h-.83v3.41a.38.38,0,0,0,.18.37.9.9,0,0,0,.34,0h.14l.17,0v.7a1.55,1.55,0,0,1-.31.06,2.06,2.06,0,0,1-.36,0,.93.93,0,0,1-.83-.31,1.37,1.37,0,0,1-.22-.82v-3.46H46V182h.71Z"/>
      <path class="cls-4" d="M52.08,184a.5.5,0,0,0,.41-.26.77.77,0,0,0,.06-.34.71.71,0,0,0-.32-.65,1.7,1.7,0,0,0-.92-.2,1.15,1.15,0,0,0-1,.37,1.18,1.18,0,0,0-.21.61h-.82a1.55,1.55,0,0,1,.63-1.35,2.56,2.56,0,0,1,1.39-.38,2.78,2.78,0,0,1,1.5.36,1.18,1.18,0,0,1,.57,1.09v3a.36.36,0,0,0,.06.22c0,.06.11.08.23.08h.14l.15,0v.65l-.31.08h-.29a.7.7,0,0,1-.66-.32,1.23,1.23,0,0,1-.15-.48,2.48,2.48,0,0,1-1.88.87,1.63,1.63,0,0,1-1.19-.45,1.59,1.59,0,0,1,0-2.23,2.19,2.19,0,0,1,1.19-.49Zm-1.85,2.37a1.09,1.09,0,0,0,.66.22,1.93,1.93,0,0,0,.9-.22,1.19,1.19,0,0,0,.73-1.16v-.71a1.21,1.21,0,0,1-.41.17,3.16,3.16,0,0,1-.5.1l-.53.07a2,2,0,0,0-.72.2.78.78,0,0,0-.41.73A.75.75,0,0,0,50.23,186.4Z"/>
      <path class="cls-4" d="M57.83,180H63v.88H58.78v2.17h3.93v.83H58.78v2.44h4.33v.85H57.83Z"/>
      <path class="cls-4" d="M64.29,182h.83v.74a2.51,2.51,0,0,1,.79-.66,2.17,2.17,0,0,1,.92-.2,1.52,1.52,0,0,1,1.51.78,2.82,2.82,0,0,1,.21,1.22v3.35h-.89v-3.3a1.89,1.89,0,0,0-.14-.77.87.87,0,0,0-.85-.49,1.74,1.74,0,0,0-.51.07,1.24,1.24,0,0,0-.64.43,1.19,1.19,0,0,0-.28.53,3.28,3.28,0,0,0-.07.79v2.74h-.88Z"/>
      <path class="cls-4" d="M73.31,182.24a2,2,0,0,1,.66,1.48h-.85a1.51,1.51,0,0,0-.36-.8,1.09,1.09,0,0,0-.89-.32,1.23,1.23,0,0,0-1.2.81,3.24,3.24,0,0,0-.24,1.32,2.49,2.49,0,0,0,.33,1.32,1.14,1.14,0,0,0,1,.53,1.18,1.18,0,0,0,.87-.33,1.85,1.85,0,0,0,.44-.91H74a2.06,2.06,0,0,1-2.23,2,2,2,0,0,1-1.63-.75,2.84,2.84,0,0,1-.61-1.87,3.17,3.17,0,0,1,.66-2.14,2.15,2.15,0,0,1,1.71-.77A2.26,2.26,0,0,1,73.31,182.24Z"/>
      <path class="cls-4" d="M78.64,182.48a2.65,2.65,0,0,1,.69,2,3.41,3.41,0,0,1-.61,2.09,2.47,2.47,0,0,1-3.6.1,3,3,0,0,1-.62-2,3.14,3.14,0,0,1,.66-2.1,2.22,2.22,0,0,1,1.78-.78A2.34,2.34,0,0,1,78.64,182.48ZM78.09,186a3.24,3.24,0,0,0,.33-1.47,2.54,2.54,0,0,0-.24-1.19,1.29,1.29,0,0,0-1.26-.72,1.24,1.24,0,0,0-1.16.61,2.87,2.87,0,0,0-.36,1.48,2.5,2.5,0,0,0,.36,1.39,1.27,1.27,0,0,0,1.15.56A1.18,1.18,0,0,0,78.09,186Z"/>
      <path class="cls-4" d="M83.29,182.12a2.69,2.69,0,0,1,.53.51V180h.84v7.2h-.79v-.73a1.84,1.84,0,0,1-.72.7,2.12,2.12,0,0,1-1,.22,1.94,1.94,0,0,1-1.51-.74,2.85,2.85,0,0,1-.64-1.95,3.4,3.4,0,0,1,.58-2,1.9,1.9,0,0,1,1.66-.84A1.87,1.87,0,0,1,83.29,182.12Zm-2,3.92a1.25,1.25,0,0,0,1.14.57,1.2,1.2,0,0,0,1-.53,2.48,2.48,0,0,0,.39-1.5,2.24,2.24,0,0,0-.4-1.47,1.25,1.25,0,0,0-1-.48,1.3,1.3,0,0,0-1.07.51,2.37,2.37,0,0,0-.41,1.5A2.62,2.62,0,0,0,81.32,186Z"/>
      <path class="cls-4" d="M86,180h.9v1H86Zm0,2h.9v5.21H86Z"/>
      <path class="cls-4" d="M88.2,182H89v.74a2.51,2.51,0,0,1,.79-.66,2.11,2.11,0,0,1,.92-.2,1.52,1.52,0,0,1,1.5.78,2.66,2.66,0,0,1,.22,1.22v3.35h-.89v-3.3a1.73,1.73,0,0,0-.15-.77.86.86,0,0,0-.85-.49,1.85,1.85,0,0,0-.51.07,1.26,1.26,0,0,0-.63.43,1.22,1.22,0,0,0-.29.53,4,4,0,0,0-.06.79v2.74H88.2Z"/>
      <path class="cls-4" d="M96.67,182.17a2.35,2.35,0,0,1,.5.5V182H98v4.76a3.6,3.6,0,0,1-.29,1.57,2.09,2.09,0,0,1-2.06,1.06,2.49,2.49,0,0,1-1.42-.38,1.48,1.48,0,0,1-.64-1.18h.9a1,1,0,0,0,.25.54,1.27,1.27,0,0,0,.93.29A1.28,1.28,0,0,0,97,188a4.1,4.1,0,0,0,.17-1.5,1.74,1.74,0,0,1-.64.6,2.27,2.27,0,0,1-2.45-.41,2.63,2.63,0,0,1-.64-2,3,3,0,0,1,.64-2,2,2,0,0,1,2.62-.44Zm.1.94a1.35,1.35,0,0,0-2.28.4,3.45,3.45,0,0,0-.18,1.22,2.12,2.12,0,0,0,.36,1.34,1.16,1.16,0,0,0,1,.47,1.36,1.36,0,0,0,1.33-.86,2.81,2.81,0,0,0,.21-1.13A2.19,2.19,0,0,0,96.77,183.11Z"/>
      <path class="cls-4" d="M102.31,180h5.2v.88h-4.26v2.17h3.94v.83h-3.94v2.44h4.34v.85h-5.28Z"/>
      <path class="cls-4" d="M108.88,180h1v6.32h3.6v.85h-4.58Z"/>
      <path class="cls-4" d="M114.54,180h5v.88h-4v2.17H119v.86h-3.52v3.26h-1Z"/>
      <path class="cls-4" d="M120.6,180h2.87a2.69,2.69,0,0,1,2.26,1,3.89,3.89,0,0,1,.72,2.42,4.79,4.79,0,0,1-.43,2.07,2.6,2.6,0,0,1-2.56,1.63H120.6Zm2.68,6.34a2.53,2.53,0,0,0,.79-.1,1.73,1.73,0,0,0,.9-.73,3,3,0,0,0,.41-1.12,4.11,4.11,0,0,0,.07-.75,3.52,3.52,0,0,0-.52-2.07,1.89,1.89,0,0,0-1.66-.74h-1.69v5.51Z"/>
      <path class="cls-4" d="M129.86,180H131l2.6,7.17H132.5l-.73-2.15h-2.84l-.77,2.15h-1Zm1.6,4.23-1.09-3.17-1.16,3.17Z"/>
      <path class="cls-4" d="M139.66,180v.85h-2.42v6.32h-1v-6.32h-2.41V180Z"/>
      <path class="cls-4" d="M142.64,180h1.1l2.6,7.17h-1.06l-.73-2.15h-2.84l-.77,2.15h-1Zm1.6,4.23-1.09-3.17L142,184.25Z"/>
      <path class="cls-4" d="M147.15,185.62a3.06,3.06,0,0,1,1.27-1.22l.93-.54a4.06,4.06,0,0,0,.89-.63,1.31,1.31,0,0,0,.4-.93,1.29,1.29,0,0,0-.37-1,1.33,1.33,0,0,0-1-.36,1.28,1.28,0,0,0-1.25.69,2.45,2.45,0,0,0-.2,1H147a3.19,3.19,0,0,1,.33-1.49,2.12,2.12,0,0,1,2-1,2.17,2.17,0,0,1,1.75.65,2.2,2.2,0,0,1,.56,1.45,2,2,0,0,1-.59,1.43,6,6,0,0,1-1.23.84l-.67.37a4.37,4.37,0,0,0-.75.51,1.79,1.79,0,0,0-.61.94h3.82v.83h-4.8A3.94,3.94,0,0,1,147.15,185.62Z"/>
      <path class="cls-4" d="M152.79,180h1v6.32h3.6v.85h-4.57Z"/>
      <path class="cls-4" d="M159,184.88a2.06,2.06,0,0,0,.28,1,1.82,1.82,0,0,0,1.64.71,2.69,2.69,0,0,0,1-.16,1.1,1.1,0,0,0,.84-1.08,1,1,0,0,0-.36-.84,3.55,3.55,0,0,0-1.12-.42l-.94-.22a4.2,4.2,0,0,1-1.31-.47,1.53,1.53,0,0,1-.66-1.35,2.1,2.1,0,0,1,.65-1.58,2.53,2.53,0,0,1,1.84-.62,3.15,3.15,0,0,1,1.87.54,2,2,0,0,1,.77,1.74h-.92a1.69,1.69,0,0,0-.3-.88,1.67,1.67,0,0,0-1.44-.56,1.64,1.64,0,0,0-1.19.36,1.15,1.15,0,0,0-.36.84.81.81,0,0,0,.43.77,6.37,6.37,0,0,0,1.26.39l1,.23a2.86,2.86,0,0,1,1.09.45,1.73,1.73,0,0,1,.67,1.46,1.86,1.86,0,0,1-.85,1.71,3.72,3.72,0,0,1-2,.51,3,3,0,0,1-2.05-.68,2.35,2.35,0,0,1-.72-1.84Z"/>
      <path class="cls-4" d="M165,180h3.1a2.07,2.07,0,0,1,1.81.75,1.73,1.73,0,0,1,.31,1,1.65,1.65,0,0,1-.38,1.12,2.12,2.12,0,0,1-.58.42,2.45,2.45,0,0,1,.83.47,1.72,1.72,0,0,1,.48,1.3,2,2,0,0,1-.44,1.25,2.47,2.47,0,0,1-2.08.84h-3Zm2.74,3a2.28,2.28,0,0,0,1-.17,1,1,0,0,0,.54-1,.94.94,0,0,0-.58-.95,2.63,2.63,0,0,0-1-.13H166v2.22Zm.33,3.31a1.5,1.5,0,0,0,1.29-.52,1.3,1.3,0,0,0,.24-.79,1.05,1.05,0,0,0-.71-1.06,2.71,2.71,0,0,0-1-.15H166v2.52Z"/>
      <path class="cls-4" d="M11.33,192h1v6.32h3.6v.85H11.33Z"/>
      <path class="cls-4" d="M20,194.1a2,2,0,0,1,.79.68,2.27,2.27,0,0,1,.35.92,6.25,6.25,0,0,1,.08,1.16h-3.8a2.26,2.26,0,0,0,.37,1.28,1.24,1.24,0,0,0,1.08.48,1.38,1.38,0,0,0,1.09-.46,1.49,1.49,0,0,0,.32-.61h.87a1.92,1.92,0,0,1-.23.64,2.24,2.24,0,0,1-.43.58,2,2,0,0,1-1,.53,3,3,0,0,1-.71.08,2.2,2.2,0,0,1-1.64-.71,2.79,2.79,0,0,1-.68-2,3,3,0,0,1,.68-2.05,2.26,2.26,0,0,1,1.78-.79A2.41,2.41,0,0,1,20,194.1Zm.32,2.06a2.4,2.4,0,0,0-.25-.92,1.27,1.27,0,0,0-1.2-.63,1.31,1.31,0,0,0-1,.44,1.64,1.64,0,0,0-.44,1.11Z"/>
      <path class="cls-4" d="M25.13,196a.5.5,0,0,0,.41-.26.77.77,0,0,0,.06-.34.71.71,0,0,0-.32-.65,1.66,1.66,0,0,0-.91-.2,1.16,1.16,0,0,0-1,.37,1.18,1.18,0,0,0-.21.61h-.82a1.55,1.55,0,0,1,.63-1.35,2.59,2.59,0,0,1,1.39-.38,2.78,2.78,0,0,1,1.5.36,1.18,1.18,0,0,1,.57,1.09v3a.36.36,0,0,0,.06.22c0,.06.12.08.24.08h.13l.15,0v.65l-.31.08h-.29a.72.72,0,0,1-.66-.32,1.23,1.23,0,0,1-.15-.48,2.43,2.43,0,0,1-1.88.87,1.63,1.63,0,0,1-1.19-.45,1.59,1.59,0,0,1,0-2.23,2.19,2.19,0,0,1,1.19-.49Zm-1.85,2.37a1.09,1.09,0,0,0,.66.22,1.93,1.93,0,0,0,.9-.22,1.19,1.19,0,0,0,.73-1.16v-.71a1.21,1.21,0,0,1-.41.17,3,3,0,0,1-.5.1l-.53.07a2,2,0,0,0-.72.2.77.77,0,0,0-.4.73A.74.74,0,0,0,23.28,198.4Z"/>
      <path class="cls-4" d="M28.42,197.55a1.21,1.21,0,0,0,.22.67,1.42,1.42,0,0,0,1.18.43,1.75,1.75,0,0,0,.87-.21.7.7,0,0,0,.38-.66.54.54,0,0,0-.3-.51A2.94,2.94,0,0,0,30,197l-.7-.18a3.43,3.43,0,0,1-1-.37,1.12,1.12,0,0,1-.57-1,1.51,1.51,0,0,1,.54-1.2,2.22,2.22,0,0,1,1.46-.46,2,2,0,0,1,1.72.7,1.48,1.48,0,0,1,.33.94h-.83a1,1,0,0,0-.22-.53,1.39,1.39,0,0,0-1.07-.35,1.32,1.32,0,0,0-.78.19.6.6,0,0,0-.26.5.63.63,0,0,0,.35.55,2,2,0,0,0,.58.21l.59.14a4.6,4.6,0,0,1,1.3.45,1.17,1.17,0,0,1,.51,1.06,1.62,1.62,0,0,1-.53,1.2,2.32,2.32,0,0,1-1.64.51,2.21,2.21,0,0,1-1.67-.53,2,2,0,0,1-.53-1.31Z"/>
      <path class="cls-4" d="M33.07,192.5H34V194h.83v.72H34v3.41a.38.38,0,0,0,.18.37,1,1,0,0,0,.35,0h.13l.17,0v.7a1.55,1.55,0,0,1-.31.06,2.06,2.06,0,0,1-.36,0,1,1,0,0,1-.83-.31,1.37,1.37,0,0,1-.22-.82v-3.46h-.71V194h.71Z"/>
      <path class="cls-4" d="M35.44,196h2.45v.91H35.44Z"/>
      <path class="cls-4" d="M39.75,196.88a2.18,2.18,0,0,0,.28,1,1.82,1.82,0,0,0,1.64.71,2.69,2.69,0,0,0,1-.16,1.1,1.1,0,0,0,.84-1.08,1,1,0,0,0-.35-.84,3.63,3.63,0,0,0-1.13-.42l-.94-.22a4.2,4.2,0,0,1-1.31-.47,1.53,1.53,0,0,1-.66-1.35,2.1,2.1,0,0,1,.65-1.58,2.55,2.55,0,0,1,1.84-.62,3.15,3.15,0,0,1,1.87.54,2,2,0,0,1,.77,1.74h-.92a1.69,1.69,0,0,0-.3-.88,1.67,1.67,0,0,0-1.44-.56,1.64,1.64,0,0,0-1.19.36,1.15,1.15,0,0,0-.36.84.81.81,0,0,0,.43.77,6.89,6.89,0,0,0,1.26.39l1,.23a2.87,2.87,0,0,1,1.08.45,1.71,1.71,0,0,1,.67,1.46,1.86,1.86,0,0,1-.85,1.71,3.72,3.72,0,0,1-2,.51,3,3,0,0,1-2-.68,2.35,2.35,0,0,1-.72-1.84Z"/>
      <path class="cls-4" d="M45.67,192h.9v1h-.9Zm0,2h.9v5.21h-.9Z"/>
      <path class="cls-4" d="M50.8,194.17a2.37,2.37,0,0,1,.51.5V194h.81v4.76a3.6,3.6,0,0,1-.29,1.57,2.1,2.1,0,0,1-2.06,1.06,2.47,2.47,0,0,1-1.42-.38,1.45,1.45,0,0,1-.64-1.18h.89a1,1,0,0,0,.25.54,1.28,1.28,0,0,0,.94.29A1.26,1.26,0,0,0,51.1,200a3.89,3.89,0,0,0,.17-1.5,1.64,1.64,0,0,1-.63.6,2.11,2.11,0,0,1-1,.19,2.09,2.09,0,0,1-1.48-.6,2.67,2.67,0,0,1-.63-2,3,3,0,0,1,.64-2,1.94,1.94,0,0,1,1.54-.74A1.89,1.89,0,0,1,50.8,194.17Zm.11.94a1.3,1.3,0,0,0-1-.47,1.26,1.26,0,0,0-1.26.87,3.45,3.45,0,0,0-.18,1.22,2.12,2.12,0,0,0,.36,1.34,1.14,1.14,0,0,0,1,.47,1.34,1.34,0,0,0,1.32-.86,2.65,2.65,0,0,0,.22-1.13A2.25,2.25,0,0,0,50.91,195.11Z"/>
      <path class="cls-4" d="M53.46,194h.83v.74a2.51,2.51,0,0,1,.79-.66,2.11,2.11,0,0,1,.92-.2,1.52,1.52,0,0,1,1.5.78,2.66,2.66,0,0,1,.22,1.22v3.35h-.9v-3.3a1.74,1.74,0,0,0-.14-.77.86.86,0,0,0-.85-.49,1.74,1.74,0,0,0-.51.07,1.26,1.26,0,0,0-.63.43,1.22,1.22,0,0,0-.29.53,3.88,3.88,0,0,0-.07.79v2.74h-.87Z"/>
      <path class="cls-4" d="M59,192h.89v1H59Zm0,2h.89v5.21H59Z"/>
      <path class="cls-4" d="M61.65,192.36a1.33,1.33,0,0,1,1.18-.45h.38v.8h-.32q-.41,0-.48.21a3.7,3.7,0,0,0-.08,1h.88v.7h-.88v4.51h-.87v-4.51h-.73V194h.73v-.82A1.49,1.49,0,0,1,61.65,192.36Z"/>
      <path class="cls-4" d="M64,192h.89v1H64Zm0,2h.89v5.21H64Z"/>
      <path class="cls-4" d="M69.69,194.24a2.09,2.09,0,0,1,.67,1.48H69.5a1.59,1.59,0,0,0-.35-.8,1.11,1.11,0,0,0-.9-.32,1.24,1.24,0,0,0-1.2.81,3.43,3.43,0,0,0-.23,1.32,2.49,2.49,0,0,0,.33,1.32,1.3,1.3,0,0,0,1.91.2,1.77,1.77,0,0,0,.44-.91h.86a2.06,2.06,0,0,1-2.23,2,2,2,0,0,1-1.64-.75,2.84,2.84,0,0,1-.61-1.87,3.12,3.12,0,0,1,.67-2.14,2.13,2.13,0,0,1,1.7-.77A2.26,2.26,0,0,1,69.69,194.24Z"/>
      <path class="cls-4" d="M74,196a.51.51,0,0,0,.41-.26.79.79,0,0,0,0-.34.7.7,0,0,0-.31-.65,1.7,1.7,0,0,0-.92-.2,1.14,1.14,0,0,0-1,.37,1.18,1.18,0,0,0-.21.61h-.82a1.52,1.52,0,0,1,.62-1.35,2.62,2.62,0,0,1,1.4-.38,2.78,2.78,0,0,1,1.5.36,1.18,1.18,0,0,1,.57,1.09v3a.36.36,0,0,0,.06.22c0,.06.11.08.23.08h.13l.16,0v.65l-.31.08h-.3a.69.69,0,0,1-.65-.32,1.08,1.08,0,0,1-.16-.48,2.24,2.24,0,0,1-.77.61,2.39,2.39,0,0,1-1.11.26,1.61,1.61,0,0,1-1.18-.45,1.57,1.57,0,0,1,0-2.23,2.19,2.19,0,0,1,1.19-.49Zm-1.85,2.37a1.09,1.09,0,0,0,.66.22,1.93,1.93,0,0,0,.9-.22,1.19,1.19,0,0,0,.73-1.16v-.71a1.3,1.3,0,0,1-.41.17,3.16,3.16,0,0,1-.5.1l-.53.07a2,2,0,0,0-.72.2.78.78,0,0,0-.41.73A.72.72,0,0,0,72.19,198.4Z"/>
      <path class="cls-4" d="M76.8,194h.83v.74a2.51,2.51,0,0,1,.79-.66,2.14,2.14,0,0,1,.92-.2,1.52,1.52,0,0,1,1.51.78,2.82,2.82,0,0,1,.21,1.22v3.35h-.89v-3.3a1.89,1.89,0,0,0-.14-.77.87.87,0,0,0-.85-.49,1.74,1.74,0,0,0-.51.07,1.24,1.24,0,0,0-.64.43,1.19,1.19,0,0,0-.28.53,3.28,3.28,0,0,0-.07.79v2.74H76.8Z"/>
      <path class="cls-4" d="M82.54,192.5h.89V194h.83v.72h-.83v3.41a.38.38,0,0,0,.18.37.9.9,0,0,0,.34,0h.14l.17,0v.7a1.7,1.7,0,0,1-.31.06,2.06,2.06,0,0,1-.36,0,.93.93,0,0,1-.83-.31,1.37,1.37,0,0,1-.22-.82v-3.46h-.71V194h.71Z"/>
      <path class="cls-4" d="M88,192h3.1a2.07,2.07,0,0,1,1.81.75,1.73,1.73,0,0,1,.31,1,1.61,1.61,0,0,1-.39,1.12,1.92,1.92,0,0,1-.57.42,2.3,2.3,0,0,1,.82.47,1.69,1.69,0,0,1,.49,1.3,2,2,0,0,1-.44,1.25,2.48,2.48,0,0,1-2.08.84H88Zm2.74,3a2.31,2.31,0,0,0,1-.17,1,1,0,0,0,.54-1,.94.94,0,0,0-.58-.95,2.69,2.69,0,0,0-1-.13H89v2.22Zm.33,3.31a1.47,1.47,0,0,0,1.28-.52,1.24,1.24,0,0,0,.25-.79A1.05,1.05,0,0,0,91.9,196a2.71,2.71,0,0,0-1-.15H89v2.52Z"/>
      <path class="cls-4" d="M97.86,194h1l-.83,2.3c-.32.9-.58,1.63-.8,2.2a13.93,13.93,0,0,1-1.07,2.43,1.21,1.21,0,0,1-1.07.44h-.29l-.25,0v-.81a2.13,2.13,0,0,0,.34.08l.18,0a.62.62,0,0,0,.35-.08.76.76,0,0,0,.2-.2l.17-.4c.1-.24.18-.42.22-.54L94.05,194h1l1.41,4.26Z"/>
      <path class="cls-4" d="M99.76,192.5h.89V194h.84v.72h-.84v3.41a.37.37,0,0,0,.19.37.9.9,0,0,0,.34,0h.14l.17,0v.7a1.65,1.65,0,0,1-.32.06,1.94,1.94,0,0,1-.35,0A1,1,0,0,1,100,199a1.45,1.45,0,0,1-.22-.82v-3.46h-.7V194h.7Z"/>
      <path class="cls-4" d="M105.6,194.1a2,2,0,0,1,.79.68,2.42,2.42,0,0,1,.35.92,6.47,6.47,0,0,1,.07,1.16H103a2.34,2.34,0,0,0,.37,1.28,1.26,1.26,0,0,0,1.08.48,1.36,1.36,0,0,0,1.09-.46,1.51,1.51,0,0,0,.33-.61h.86a1.72,1.72,0,0,1-.23.64,2,2,0,0,1-.43.58,2,2,0,0,1-1,.53,3.08,3.08,0,0,1-.71.08,2.2,2.2,0,0,1-1.65-.71,2.79,2.79,0,0,1-.67-2,3,3,0,0,1,.68-2.05,2.24,2.24,0,0,1,1.77-.79A2.45,2.45,0,0,1,105.6,194.1Zm.31,2.06a2.24,2.24,0,0,0-.25-.92,1.26,1.26,0,0,0-1.19-.63,1.33,1.33,0,0,0-1,.44,1.68,1.68,0,0,0-.43,1.11Z"/>
      <path class="cls-4" d="M111.23,197.55a1.21,1.21,0,0,0,.22.67,1.42,1.42,0,0,0,1.18.43,1.82,1.82,0,0,0,.88-.21.71.71,0,0,0,.37-.66.54.54,0,0,0-.3-.51,3,3,0,0,0-.76-.25l-.71-.18a3.35,3.35,0,0,1-1-.37,1.11,1.11,0,0,1-.58-1,1.51,1.51,0,0,1,.54-1.2,2.22,2.22,0,0,1,1.46-.46,2,2,0,0,1,1.73.7,1.53,1.53,0,0,1,.32.94h-.83a1,1,0,0,0-.22-.53,1.37,1.37,0,0,0-1.07-.35,1.27,1.27,0,0,0-.77.19.58.58,0,0,0-.27.5.63.63,0,0,0,.35.55,2.07,2.07,0,0,0,.59.21l.59.14a4.62,4.62,0,0,1,1.29.45,1.17,1.17,0,0,1,.51,1.06,1.59,1.59,0,0,1-.53,1.2,2.3,2.3,0,0,1-1.64.51,2.23,2.23,0,0,1-1.67-.53,2,2,0,0,1-.53-1.31Z"/>
      <path class="cls-4" d="M115.88,192.5h.89V194h.84v.72h-.84v3.41a.37.37,0,0,0,.19.37.86.86,0,0,0,.34,0h.13l.18,0v.7a1.8,1.8,0,0,1-.32.06,2,2,0,0,1-.35,0,1,1,0,0,1-.84-.31,1.45,1.45,0,0,1-.22-.82v-3.46h-.71V194h.71Z"/>
      <path class="cls-4" d="M122.27,194.48a2.61,2.61,0,0,1,.7,2,3.47,3.47,0,0,1-.61,2.09,2.21,2.21,0,0,1-1.9.83,2.16,2.16,0,0,1-1.7-.73,2.9,2.9,0,0,1-.63-2,3.14,3.14,0,0,1,.66-2.1,2.24,2.24,0,0,1,1.79-.78A2.32,2.32,0,0,1,122.27,194.48Zm-.54,3.48a3.37,3.37,0,0,0,.32-1.47,2.68,2.68,0,0,0-.23-1.19,1.31,1.31,0,0,0-1.27-.72,1.24,1.24,0,0,0-1.16.61,2.87,2.87,0,0,0-.36,1.48,2.5,2.5,0,0,0,.36,1.39,1.28,1.28,0,0,0,1.15.56A1.21,1.21,0,0,0,121.73,198Z"/>
      <path class="cls-4" d="M124.07,194h.84v.9a1.86,1.86,0,0,1,.5-.64,1.29,1.29,0,0,1,.92-.38h.08l.2,0v.92h-.28a1.22,1.22,0,0,0-1,.43,1.47,1.47,0,0,0-.36,1v3h-.88Z"/>
      <path class="cls-4" d="M130.61,194.1a2,2,0,0,1,.79.68,2.42,2.42,0,0,1,.35.92,6.47,6.47,0,0,1,.07,1.16H128a2.34,2.34,0,0,0,.37,1.28,1.26,1.26,0,0,0,1.08.48,1.36,1.36,0,0,0,1.09-.46,1.51,1.51,0,0,0,.33-.61h.86a1.72,1.72,0,0,1-.23.64,2,2,0,0,1-.43.58,2,2,0,0,1-1,.53,3.08,3.08,0,0,1-.71.08,2.2,2.2,0,0,1-1.65-.71,2.79,2.79,0,0,1-.67-2,3,3,0,0,1,.68-2.05,2.24,2.24,0,0,1,1.77-.79A2.45,2.45,0,0,1,130.61,194.1Zm.31,2.06a2.24,2.24,0,0,0-.25-.92,1.26,1.26,0,0,0-1.19-.63,1.33,1.33,0,0,0-1,.44,1.68,1.68,0,0,0-.43,1.11Z"/>
      <path class="cls-4" d="M135.81,194.12a2.44,2.44,0,0,1,.53.51V192h.85v7.2h-.8v-.73a1.78,1.78,0,0,1-.72.7,2.12,2.12,0,0,1-1,.22,2,2,0,0,1-1.51-.74,2.89,2.89,0,0,1-.63-1.95,3.33,3.33,0,0,1,.58-2,1.9,1.9,0,0,1,1.66-.84A1.83,1.83,0,0,1,135.81,194.12Zm-2,3.92a1.23,1.23,0,0,0,1.14.57,1.19,1.19,0,0,0,1-.53,2.48,2.48,0,0,0,.4-1.5,2.24,2.24,0,0,0-.41-1.47,1.25,1.25,0,0,0-1-.48,1.34,1.34,0,0,0-1.08.51,2.37,2.37,0,0,0-.41,1.5A2.53,2.53,0,0,0,133.85,198Z"/>
      <path class="cls-4" d="M141.28,192h.89v1h-.89Zm0,2h.89v5.21h-.89Z"/>
      <path class="cls-4" d="M143.5,194h.83v.74a2.51,2.51,0,0,1,.79-.66,2.14,2.14,0,0,1,.92-.2,1.52,1.52,0,0,1,1.51.78,2.82,2.82,0,0,1,.21,1.22v3.35h-.89v-3.3a1.89,1.89,0,0,0-.14-.77.87.87,0,0,0-.85-.49,1.87,1.87,0,0,0-.52.07,1.26,1.26,0,0,0-.63.43,1.33,1.33,0,0,0-.29.53,4,4,0,0,0-.06.79v2.74h-.88Z"/>
      <path class="cls-4" d="M151.77,192h.85v2.61a1.82,1.82,0,0,1,.69-.58,2,2,0,0,1,.87-.2,2,2,0,0,1,1.59.68,2.8,2.8,0,0,1,.61,2,3.43,3.43,0,0,1-.6,2.07,2,2,0,0,1-1.67.82,1.74,1.74,0,0,1-1-.29,2.54,2.54,0,0,1-.52-.55v.67h-.81Zm3.36,6a2.81,2.81,0,0,0,.35-1.49,2.51,2.51,0,0,0-.35-1.37,1.18,1.18,0,0,0-1-.54,1.51,1.51,0,0,0-1.06.44,2,2,0,0,0-.45,1.47,3.05,3.05,0,0,0,.19,1.19,1.28,1.28,0,0,0,1.3.87A1.19,1.19,0,0,0,155.13,198Z"/>
      <path class="cls-4" d="M160.67,194h1c-.12.34-.4,1.1-.82,2.3-.32.9-.59,1.63-.8,2.2a14.48,14.48,0,0,1-1.08,2.43,1.2,1.2,0,0,1-1.07.44h-.29l-.24,0v-.81a1.85,1.85,0,0,0,.33.08l.18,0a.69.69,0,0,0,.36-.08.9.9,0,0,0,.19-.2s.07-.16.18-.4.17-.42.21-.54L156.86,194h1l1.4,4.26Z"/>
      <path class="cls-4" d="M162.58,192.5h.88V194h.84v.72h-.84v3.41a.38.38,0,0,0,.19.37.9.9,0,0,0,.34,0h.14l.17,0v.7a1.65,1.65,0,0,1-.32.06,1.89,1.89,0,0,1-.35,0,.93.93,0,0,1-.83-.31,1.37,1.37,0,0,1-.22-.82v-3.46h-.71V194h.71Z"/>
      <path class="cls-4" d="M168.41,194.1a2,2,0,0,1,.79.68,2.27,2.27,0,0,1,.35.92,6.25,6.25,0,0,1,.08,1.16h-3.81a2.26,2.26,0,0,0,.38,1.28,1.24,1.24,0,0,0,1.08.48,1.38,1.38,0,0,0,1.09-.46,1.49,1.49,0,0,0,.32-.61h.86a1.68,1.68,0,0,1-.22.64,2.5,2.5,0,0,1-.43.58,2.07,2.07,0,0,1-1,.53,3.08,3.08,0,0,1-.71.08,2.16,2.16,0,0,1-1.64-.71,2.79,2.79,0,0,1-.68-2,3,3,0,0,1,.68-2.05,2.26,2.26,0,0,1,1.78-.79A2.41,2.41,0,0,1,168.41,194.1Zm.31,2.06a2.24,2.24,0,0,0-.24-.92,1.27,1.27,0,0,0-1.2-.63,1.33,1.33,0,0,0-1,.44,1.68,1.68,0,0,0-.43,1.11Z"/>
      <path class="cls-4" d="M177.54,193.32a5,5,0,0,1,.47,2.36,5.76,5.76,0,0,1-.42,2.36,2.1,2.1,0,0,1-2,1.34,2,2,0,0,1-1.87-1.09,5,5,0,0,1-.51-2.45,6.2,6.2,0,0,1,.3-2.05,2.11,2.11,0,0,1,2.09-1.59A2.06,2.06,0,0,1,177.54,193.32Zm-.88,4.65a4.36,4.36,0,0,0,.4-2.25,5.44,5.44,0,0,0-.29-2,1.13,1.13,0,0,0-1.14-.77,1.19,1.19,0,0,0-1.14.73,5,5,0,0,0-.36,2.15,5.37,5.37,0,0,0,.23,1.72,1.25,1.25,0,0,0,2.3.38Z"/>
    </g>
    <g>
      <path class="cls-4" d="M298.65,179.9a18.19,18.19,0,0,0-1,2.19,9,9,0,0,0,.05,5.06,14.86,14.86,0,0,0,1,2.08h-.59c-.47-.74-.77-1.21-.88-1.42a5,5,0,0,1-.37-.84,6.32,6.32,0,0,1-.38-1.54,5.73,5.73,0,0,1-.06-.81,6.69,6.69,0,0,1,.46-2.57,14.19,14.19,0,0,1,1.2-2.15Z"/>
      <path class="cls-4" d="M299.59,180h.86v2.61a1.82,1.82,0,0,1,.69-.58,2,2,0,0,1,.87-.2,2.06,2.06,0,0,1,1.59.68,2.8,2.8,0,0,1,.61,2,3.43,3.43,0,0,1-.6,2.07,2,2,0,0,1-1.67.82,1.72,1.72,0,0,1-1-.29,2.55,2.55,0,0,1-.53-.55v.67h-.81Zm3.36,6a2.72,2.72,0,0,0,.36-1.49,2.43,2.43,0,0,0-.36-1.37,1.17,1.17,0,0,0-1-.54,1.47,1.47,0,0,0-1.06.44,2,2,0,0,0-.45,1.47,3.27,3.27,0,0,0,.18,1.19,1.29,1.29,0,0,0,1.3.87A1.18,1.18,0,0,0,303,186Z"/>
      <path class="cls-4" d="M304.93,189.23a16.48,16.48,0,0,0,1-2.21,7.9,7.9,0,0,0,.34-2.46,8.12,8.12,0,0,0-.39-2.58,16.52,16.52,0,0,0-1-2.08h.59l.92,1.48a8.36,8.36,0,0,1,.34.78,5.37,5.37,0,0,1,.33,1.2,6.62,6.62,0,0,1,.1,1.15,6.78,6.78,0,0,1-.46,2.58,14.35,14.35,0,0,1-1.19,2.14Z"/>
      <path class="cls-4" d="M311.5,180h2.86a2.69,2.69,0,0,1,2.27,1,3.88,3.88,0,0,1,.71,2.42,4.94,4.94,0,0,1-.42,2.07,2.61,2.61,0,0,1-2.57,1.63H311.5Zm2.67,6.34a2.49,2.49,0,0,0,.79-.1,1.75,1.75,0,0,0,.91-.73,3.2,3.2,0,0,0,.41-1.12,4.11,4.11,0,0,0,.07-.75,3.52,3.52,0,0,0-.52-2.07,1.89,1.89,0,0,0-1.67-.74h-1.68v5.51Z"/>
      <path class="cls-4" d="M321.36,184a.48.48,0,0,0,.4-.26.77.77,0,0,0,.06-.34.69.69,0,0,0-.32-.65,1.64,1.64,0,0,0-.91-.2,1.14,1.14,0,0,0-1,.37,1.18,1.18,0,0,0-.21.61h-.83a1.55,1.55,0,0,1,.63-1.35,2.6,2.6,0,0,1,1.4-.38,2.82,2.82,0,0,1,1.5.36,1.18,1.18,0,0,1,.57,1.09v3a.45.45,0,0,0,.05.22c0,.06.12.08.24.08h.13l.16,0v.65l-.31.08h-.3A.72.72,0,0,1,322,187a1.23,1.23,0,0,1-.15-.48,2.34,2.34,0,0,1-.77.61,2.39,2.39,0,0,1-1.11.26,1.65,1.65,0,0,1-1.19-.45,1.48,1.48,0,0,1-.46-1.1,1.42,1.42,0,0,1,.46-1.13,2.19,2.19,0,0,1,1.19-.49Zm-1.85,2.37a1,1,0,0,0,.66.22,1.93,1.93,0,0,0,.9-.22,1.2,1.2,0,0,0,.73-1.16v-.71a1.36,1.36,0,0,1-.42.17,3,3,0,0,1-.49.1l-.53.07a2,2,0,0,0-.72.2.78.78,0,0,0-.41.73A.72.72,0,0,0,319.51,186.4Z"/>
      <path class="cls-4" d="M324.29,180.5h.89V182H326v.72h-.84v3.41a.37.37,0,0,0,.19.37.9.9,0,0,0,.34,0h.14l.17,0v.7a1.65,1.65,0,0,1-.32.06,2,2,0,0,1-.35,0,1,1,0,0,1-.84-.31,1.45,1.45,0,0,1-.22-.82v-3.46h-.71V182h.71Z"/>
      <path class="cls-4" d="M329.7,184a.48.48,0,0,0,.4-.26.77.77,0,0,0,.06-.34.69.69,0,0,0-.32-.65,1.64,1.64,0,0,0-.91-.2,1.14,1.14,0,0,0-1,.37,1.18,1.18,0,0,0-.21.61h-.83a1.55,1.55,0,0,1,.63-1.35,2.6,2.6,0,0,1,1.4-.38,2.82,2.82,0,0,1,1.5.36,1.18,1.18,0,0,1,.57,1.09v3a.45.45,0,0,0,.05.22c0,.06.12.08.24.08h.13l.16,0v.65l-.31.08H331a.72.72,0,0,1-.66-.32,1.23,1.23,0,0,1-.15-.48,2.34,2.34,0,0,1-.77.61,2.39,2.39,0,0,1-1.11.26,1.65,1.65,0,0,1-1.19-.45,1.48,1.48,0,0,1-.46-1.1,1.42,1.42,0,0,1,.46-1.13,2.19,2.19,0,0,1,1.19-.49Zm-1.85,2.37a1,1,0,0,0,.66.22,1.93,1.93,0,0,0,.9-.22,1.2,1.2,0,0,0,.73-1.16v-.71a1.36,1.36,0,0,1-.42.17,3,3,0,0,1-.49.1l-.53.07a2,2,0,0,0-.72.2.78.78,0,0,0-.41.73A.72.72,0,0,0,327.85,186.4Z"/>
      <path class="cls-4" d="M335.45,180h5.2v.88h-4.26v2.17h3.94v.83h-3.94v2.44h4.33v.85h-5.27Z"/>
      <path class="cls-4" d="M341.91,182h.83v.74a2.51,2.51,0,0,1,.79-.66,2.11,2.11,0,0,1,.92-.2,1.52,1.52,0,0,1,1.5.78,2.66,2.66,0,0,1,.22,1.22v3.35h-.9v-3.3a1.74,1.74,0,0,0-.14-.77.86.86,0,0,0-.85-.49,1.79,1.79,0,0,0-.51.07,1.26,1.26,0,0,0-.63.43,1.22,1.22,0,0,0-.29.53,3.88,3.88,0,0,0-.07.79v2.74h-.87Z"/>
      <path class="cls-4" d="M350.92,182.24a2.09,2.09,0,0,1,.67,1.48h-.86a1.59,1.59,0,0,0-.35-.8,1.12,1.12,0,0,0-.9-.32,1.23,1.23,0,0,0-1.2.81,3.43,3.43,0,0,0-.23,1.32,2.49,2.49,0,0,0,.33,1.32,1.13,1.13,0,0,0,1,.53,1.15,1.15,0,0,0,.87-.33,1.85,1.85,0,0,0,.44-.91h.86a2.06,2.06,0,0,1-2.23,2,2,2,0,0,1-1.64-.75,2.84,2.84,0,0,1-.61-1.87,3.12,3.12,0,0,1,.67-2.14,2.13,2.13,0,0,1,1.7-.77A2.26,2.26,0,0,1,350.92,182.24Z"/>
      <path class="cls-4" d="M356.26,182.48a2.65,2.65,0,0,1,.69,2,3.41,3.41,0,0,1-.61,2.09,2.21,2.21,0,0,1-1.9.83,2.16,2.16,0,0,1-1.7-.73,2.9,2.9,0,0,1-.63-2,3.14,3.14,0,0,1,.66-2.1,2.24,2.24,0,0,1,1.79-.78A2.35,2.35,0,0,1,356.26,182.48Zm-.55,3.48a3.37,3.37,0,0,0,.32-1.47,2.68,2.68,0,0,0-.23-1.19,1.31,1.31,0,0,0-1.27-.72,1.23,1.23,0,0,0-1.15.61,2.78,2.78,0,0,0-.37,1.48,2.42,2.42,0,0,0,.37,1.39,1.27,1.27,0,0,0,1.15.56A1.19,1.19,0,0,0,355.71,186Z"/>
      <path class="cls-4" d="M360.9,182.12a2.44,2.44,0,0,1,.53.51V180h.85v7.2h-.79v-.73a1.87,1.87,0,0,1-.73.7,2.12,2.12,0,0,1-1,.22,2,2,0,0,1-1.51-.74,2.89,2.89,0,0,1-.63-1.95,3.33,3.33,0,0,1,.58-2,1.9,1.9,0,0,1,1.66-.84A1.83,1.83,0,0,1,360.9,182.12Zm-2,3.92a1.24,1.24,0,0,0,1.14.57,1.22,1.22,0,0,0,1-.53,2.55,2.55,0,0,0,.39-1.5,2.24,2.24,0,0,0-.41-1.47,1.25,1.25,0,0,0-1-.48,1.3,1.3,0,0,0-1.07.51,2.31,2.31,0,0,0-.42,1.5A2.53,2.53,0,0,0,358.94,186Z"/>
      <path class="cls-4" d="M363.59,180h.89v1h-.89Zm0,2h.89v5.21h-.89Z"/>
      <path class="cls-4" d="M365.81,182h.84v.74a2.48,2.48,0,0,1,.78-.66,2.18,2.18,0,0,1,.93-.2,1.52,1.52,0,0,1,1.5.78,2.82,2.82,0,0,1,.21,1.22v3.35h-.89v-3.3a1.89,1.89,0,0,0-.14-.77.87.87,0,0,0-.85-.49,1.74,1.74,0,0,0-.51.07,1.28,1.28,0,0,0-.64.43,1.3,1.3,0,0,0-.28.53,3.28,3.28,0,0,0-.07.79v2.74h-.88Z"/>
      <path class="cls-4" d="M374.28,182.17a2.37,2.37,0,0,1,.51.5V182h.81v4.76a3.45,3.45,0,0,1-.3,1.57,2.08,2.08,0,0,1-2.05,1.06,2.45,2.45,0,0,1-1.42-.38,1.45,1.45,0,0,1-.64-1.18h.89a1,1,0,0,0,.25.54,1.28,1.28,0,0,0,.94.29,1.26,1.26,0,0,0,1.31-.71,3.89,3.89,0,0,0,.17-1.5,1.64,1.64,0,0,1-.63.6,2.11,2.11,0,0,1-1,.19,2.09,2.09,0,0,1-1.48-.6,2.67,2.67,0,0,1-.63-2,3,3,0,0,1,.64-2,1.94,1.94,0,0,1,1.54-.74A1.89,1.89,0,0,1,374.28,182.17Zm.11.94a1.3,1.3,0,0,0-1-.47,1.26,1.26,0,0,0-1.26.87,3.45,3.45,0,0,0-.18,1.22,2.12,2.12,0,0,0,.36,1.34,1.13,1.13,0,0,0,1,.47,1.34,1.34,0,0,0,1.32-.86,2.81,2.81,0,0,0,.22-1.13A2.25,2.25,0,0,0,374.39,183.11Z"/>
      <path class="cls-4" d="M379.92,180h5.21v.88h-4.26v2.17h3.94v.83h-3.94v2.44h4.33v.85h-5.28Z"/>
      <path class="cls-4" d="M386.5,180h1v6.32h3.6v.85H386.5Z"/>
      <path class="cls-4" d="M392.15,180h5v.88h-4v2.17h3.52v.86h-3.52v3.26h-1Z"/>
      <path class="cls-4" d="M398.21,180h2.87a2.71,2.71,0,0,1,2.27,1,4,4,0,0,1,.71,2.42,4.94,4.94,0,0,1-.42,2.07,2.61,2.61,0,0,1-2.57,1.63h-2.86Zm2.68,6.34a2.49,2.49,0,0,0,.79-.1,1.79,1.79,0,0,0,.91-.73,3.2,3.2,0,0,0,.41-1.12,5.23,5.23,0,0,0,.07-.75,3.6,3.6,0,0,0-.52-2.07,1.91,1.91,0,0,0-1.67-.74H399.2v5.51Z"/>
      <path class="cls-4" d="M407.48,180h1.1l2.6,7.17h-1.07l-.72-2.15h-2.84l-.78,2.15h-1Zm1.59,4.23L408,181.08l-1.15,3.17Z"/>
      <path class="cls-4" d="M417.28,180v.85h-2.42v6.32h-1v-6.32h-2.42V180Z"/>
      <path class="cls-4" d="M420.25,180h1.1l2.61,7.17h-1.07l-.73-2.15h-2.83l-.78,2.15h-1Zm1.6,4.23-1.09-3.17-1.15,3.17Z"/>
      <path class="cls-4" d="M424.76,185.62A3.06,3.06,0,0,1,426,184.4l.94-.54a4,4,0,0,0,.88-.63,1.27,1.27,0,0,0,.4-.93,1.32,1.32,0,0,0-.36-1,1.35,1.35,0,0,0-1-.36,1.27,1.27,0,0,0-1.25.69,2.45,2.45,0,0,0-.2,1h-.9a3.07,3.07,0,0,1,.34-1.49,2.11,2.11,0,0,1,2-1,2.07,2.07,0,0,1,2.3,2.1,1.92,1.92,0,0,1-.59,1.43,5.57,5.57,0,0,1-1.22.84l-.67.37a4.37,4.37,0,0,0-.75.51,1.81,1.81,0,0,0-.62.94h3.82v.83h-4.8A4.12,4.12,0,0,1,424.76,185.62Z"/>
      <path class="cls-4" d="M430.38,180h1.39l2.06,6.06,2.05-6.06h1.38v7.17h-.93V183c0-.15,0-.39,0-.73s0-.7,0-1.09l-2,6.05h-1l-2.06-6.05v.22c0,.18,0,.44,0,.8s0,.63,0,.8v4.23h-.92Z"/>
      <path class="cls-4" d="M439.37,184.88a2.06,2.06,0,0,0,.27,1,1.83,1.83,0,0,0,1.65.71,2.69,2.69,0,0,0,1-.16,1.1,1.1,0,0,0,.83-1.08,1,1,0,0,0-.35-.84,3.63,3.63,0,0,0-1.13-.42l-.94-.22a4.2,4.2,0,0,1-1.31-.47,1.53,1.53,0,0,1-.66-1.35,2.1,2.1,0,0,1,.65-1.58,2.56,2.56,0,0,1,1.85-.62,3.14,3.14,0,0,1,1.86.54,2,2,0,0,1,.77,1.74h-.91a1.89,1.89,0,0,0-.3-.88,1.7,1.7,0,0,0-1.45-.56A1.62,1.62,0,0,0,440,181a1.15,1.15,0,0,0-.36.84.82.82,0,0,0,.42.77,6.89,6.89,0,0,0,1.26.39l1,.23a3,3,0,0,1,1.09.45,1.73,1.73,0,0,1,.66,1.46,1.84,1.84,0,0,1-.85,1.71,3.69,3.69,0,0,1-2,.51,2.9,2.9,0,0,1-2-.68,2.33,2.33,0,0,1-.73-1.84Z"/>
      <path class="cls-4" d="M445.38,180h3.1a2.07,2.07,0,0,1,1.8.75,1.74,1.74,0,0,1,.32,1,1.61,1.61,0,0,1-.39,1.12,1.85,1.85,0,0,1-.58.42,2.36,2.36,0,0,1,.83.47,1.72,1.72,0,0,1,.48,1.3,2,2,0,0,1-.43,1.25,2.48,2.48,0,0,1-2.08.84h-3.05Zm2.74,3a2.26,2.26,0,0,0,1-.17,1,1,0,0,0,.54-1,.94.94,0,0,0-.57-.95,2.69,2.69,0,0,0-1-.13h-1.75v2.22Zm.32,3.31a1.5,1.5,0,0,0,1.29-.52,1.3,1.3,0,0,0,.24-.79,1,1,0,0,0-.7-1.06,2.71,2.71,0,0,0-1-.15h-1.95v2.52Z"/>
      <path class="cls-4" d="M291.7,192h1.39l2.06,6.06L297.2,192h1.38v7.17h-.92V195c0-.15,0-.39,0-.73v-1.09l-2,6.05h-1l-2.06-6.05v.22c0,.18,0,.44,0,.8s0,.63,0,.8v4.23h-.93Z"/>
      <path class="cls-4" d="M303.72,194.48a2.61,2.61,0,0,1,.7,2,3.47,3.47,0,0,1-.61,2.09,2.21,2.21,0,0,1-1.9.83,2.16,2.16,0,0,1-1.7-.73,2.9,2.9,0,0,1-.63-2,3.14,3.14,0,0,1,.66-2.1,2.24,2.24,0,0,1,1.79-.78A2.32,2.32,0,0,1,303.72,194.48Zm-.54,3.48a3.37,3.37,0,0,0,.32-1.47,2.68,2.68,0,0,0-.23-1.19,1.31,1.31,0,0,0-1.27-.72,1.25,1.25,0,0,0-1.16.61,2.87,2.87,0,0,0-.36,1.48,2.5,2.5,0,0,0,.36,1.39,1.29,1.29,0,0,0,1.15.56A1.21,1.21,0,0,0,303.18,198Z"/>
      <path class="cls-4" d="M306,197.55a1.29,1.29,0,0,0,.22.67,1.42,1.42,0,0,0,1.18.43,1.82,1.82,0,0,0,.88-.21.72.72,0,0,0,.38-.66.54.54,0,0,0-.31-.51,3,3,0,0,0-.76-.25l-.71-.18a3.35,3.35,0,0,1-1-.37,1.11,1.11,0,0,1-.58-1,1.51,1.51,0,0,1,.54-1.2,2.22,2.22,0,0,1,1.46-.46,2,2,0,0,1,1.73.7,1.47,1.47,0,0,1,.32.94h-.83a1,1,0,0,0-.22-.53,1.37,1.37,0,0,0-1.07-.35,1.27,1.27,0,0,0-.77.19.58.58,0,0,0-.27.5.63.63,0,0,0,.35.55,2.07,2.07,0,0,0,.59.21l.59.14a4.62,4.62,0,0,1,1.29.45,1.17,1.17,0,0,1,.51,1.06,1.59,1.59,0,0,1-.53,1.2,2.29,2.29,0,0,1-1.63.51,2.24,2.24,0,0,1-1.68-.53,2,2,0,0,1-.53-1.31Z"/>
      <path class="cls-4" d="M310.67,192.5h.89V194h.84v.72h-.84v3.41a.37.37,0,0,0,.19.37.9.9,0,0,0,.34,0h.14l.17,0v.7a1.65,1.65,0,0,1-.32.06,2,2,0,0,1-.35,0,1,1,0,0,1-.84-.31,1.45,1.45,0,0,1-.22-.82v-3.46H310V194h.71Z"/>
      <path class="cls-4" d="M313.05,196h2.45v.91h-2.45Z"/>
      <path class="cls-4" d="M317.36,196.88a2.06,2.06,0,0,0,.27,1,1.84,1.84,0,0,0,1.65.71,2.69,2.69,0,0,0,1-.16,1.1,1.1,0,0,0,.83-1.08,1,1,0,0,0-.35-.84,3.63,3.63,0,0,0-1.13-.42l-.94-.22a4.13,4.13,0,0,1-1.3-.47,1.51,1.51,0,0,1-.67-1.35,2.1,2.1,0,0,1,.65-1.58,2.56,2.56,0,0,1,1.85-.62,3.14,3.14,0,0,1,1.86.54,2,2,0,0,1,.77,1.74h-.91a1.89,1.89,0,0,0-.3-.88,1.7,1.7,0,0,0-1.45-.56A1.62,1.62,0,0,0,318,193a1.15,1.15,0,0,0-.36.84.82.82,0,0,0,.42.77,6.81,6.81,0,0,0,1.27.39l1,.23a3,3,0,0,1,1.09.45,1.73,1.73,0,0,1,.66,1.46,1.84,1.84,0,0,1-.85,1.71,3.69,3.69,0,0,1-2,.51,2.9,2.9,0,0,1-2-.68,2.36,2.36,0,0,1-.73-1.84Z"/>
      <path class="cls-4" d="M323.28,192h.89v1h-.89Zm0,2h.89v5.21h-.89Z"/>
      <path class="cls-4" d="M328.4,194.17a2.17,2.17,0,0,1,.51.5V194h.81v4.76a3.6,3.6,0,0,1-.29,1.57,2.09,2.09,0,0,1-2.06,1.06A2.49,2.49,0,0,1,326,201a1.48,1.48,0,0,1-.64-1.18h.9a1,1,0,0,0,.25.54,1.27,1.27,0,0,0,.93.29,1.28,1.28,0,0,0,1.32-.71,4.1,4.1,0,0,0,.17-1.5,1.74,1.74,0,0,1-.64.6,2.27,2.27,0,0,1-2.45-.41,2.63,2.63,0,0,1-.64-2,3,3,0,0,1,.64-2,2,2,0,0,1,1.54-.74A1.89,1.89,0,0,1,328.4,194.17Zm.11.94a1.35,1.35,0,0,0-2.28.4,3.45,3.45,0,0,0-.18,1.22,2.12,2.12,0,0,0,.36,1.34,1.16,1.16,0,0,0,1,.47,1.36,1.36,0,0,0,1.33-.86,2.81,2.81,0,0,0,.21-1.13A2.19,2.19,0,0,0,328.51,195.11Z"/>
      <path class="cls-4" d="M331.06,194h.83v.74a2.51,2.51,0,0,1,.79-.66,2.14,2.14,0,0,1,.92-.2,1.53,1.53,0,0,1,1.51.78,2.82,2.82,0,0,1,.21,1.22v3.35h-.89v-3.3a1.89,1.89,0,0,0-.14-.77.87.87,0,0,0-.85-.49,1.87,1.87,0,0,0-.52.07,1.26,1.26,0,0,0-.63.43,1.33,1.33,0,0,0-.29.53,4,4,0,0,0-.06.79v2.74h-.88Z"/>
      <path class="cls-4" d="M336.62,192h.89v1h-.89Zm0,2h.89v5.21h-.89Z"/>
      <path class="cls-4" d="M339.25,192.36a1.35,1.35,0,0,1,1.19-.45h.37v.8h-.32q-.4,0-.48.21a4.14,4.14,0,0,0-.08,1h.88v.7h-.88v4.51h-.87v-4.51h-.73V194h.73v-.82A1.59,1.59,0,0,1,339.25,192.36Z"/>
      <path class="cls-4" d="M341.62,192h.89v1h-.89Zm0,2h.89v5.21h-.89Z"/>
      <path class="cls-4" d="M347.3,194.24a2,2,0,0,1,.66,1.48h-.85a1.51,1.51,0,0,0-.36-.8,1.09,1.09,0,0,0-.89-.32,1.23,1.23,0,0,0-1.2.81,3.24,3.24,0,0,0-.24,1.32,2.49,2.49,0,0,0,.33,1.32,1.14,1.14,0,0,0,1.05.53,1.18,1.18,0,0,0,.87-.33,1.85,1.85,0,0,0,.44-.91H348a2.06,2.06,0,0,1-2.23,2,2,2,0,0,1-1.63-.75,2.84,2.84,0,0,1-.61-1.87,3.17,3.17,0,0,1,.66-2.14,2.15,2.15,0,0,1,1.71-.77A2.26,2.26,0,0,1,347.3,194.24Z"/>
      <path class="cls-4" d="M351.64,196a.5.5,0,0,0,.41-.26.77.77,0,0,0,.06-.34.71.71,0,0,0-.32-.65,1.66,1.66,0,0,0-.91-.2,1.16,1.16,0,0,0-1,.37,1.18,1.18,0,0,0-.21.61h-.82a1.55,1.55,0,0,1,.63-1.35,2.59,2.59,0,0,1,1.39-.38,2.78,2.78,0,0,1,1.5.36,1.18,1.18,0,0,1,.57,1.09v3a.36.36,0,0,0,.06.22c0,.06.12.08.24.08h.13l.15,0v.65l-.31.08h-.29a.72.72,0,0,1-.66-.32,1.23,1.23,0,0,1-.15-.48,2.43,2.43,0,0,1-1.88.87,1.63,1.63,0,0,1-1.19-.45,1.59,1.59,0,0,1,0-2.23,2.19,2.19,0,0,1,1.19-.49Zm-1.85,2.37a1.09,1.09,0,0,0,.66.22,1.93,1.93,0,0,0,.9-.22,1.19,1.19,0,0,0,.73-1.16v-.71a1.21,1.21,0,0,1-.41.17,3.16,3.16,0,0,1-.5.1l-.53.07a2,2,0,0,0-.72.2.77.77,0,0,0-.4.73A.74.74,0,0,0,349.79,198.4Z"/>
      <path class="cls-4" d="M354.4,194h.84v.74A2.59,2.59,0,0,1,356,194a2.18,2.18,0,0,1,.93-.2,1.52,1.52,0,0,1,1.5.78,2.8,2.8,0,0,1,.22,1.22v3.35h-.9v-3.3a1.74,1.74,0,0,0-.14-.77.87.87,0,0,0-.85-.49,1.74,1.74,0,0,0-.51.07,1.33,1.33,0,0,0-.64.43,1.3,1.3,0,0,0-.28.53,3.28,3.28,0,0,0-.07.79v2.74h-.88Z"/>
      <path class="cls-4" d="M360.14,192.5H361V194h.83v.72H361v3.41a.38.38,0,0,0,.18.37,1,1,0,0,0,.35,0h.13l.17,0v.7a1.55,1.55,0,0,1-.31.06,2,2,0,0,1-.35,0,1,1,0,0,1-.84-.31,1.37,1.37,0,0,1-.22-.82v-3.46h-.71V194h.71Z"/>
      <path class="cls-4" d="M365.61,192h3.11a2.07,2.07,0,0,1,1.8.75,1.73,1.73,0,0,1,.31,1,1.6,1.6,0,0,1-.38,1.12,2.12,2.12,0,0,1-.58.42,2.45,2.45,0,0,1,.83.47,1.72,1.72,0,0,1,.48,1.3,1.93,1.93,0,0,1-.44,1.25,2.45,2.45,0,0,1-2.07.84h-3.06Zm2.74,3a2.28,2.28,0,0,0,1-.17,1,1,0,0,0,.54-1,.94.94,0,0,0-.57-.95,2.69,2.69,0,0,0-1-.13h-1.75v2.22Zm.33,3.31a1.5,1.5,0,0,0,1.29-.52,1.3,1.3,0,0,0,.24-.79,1.05,1.05,0,0,0-.71-1.06,2.71,2.71,0,0,0-1-.15h-1.94v2.52Z"/>
      <path class="cls-4" d="M375.46,194h1c-.12.34-.4,1.1-.82,2.3-.32.9-.59,1.63-.8,2.2a14.48,14.48,0,0,1-1.08,2.43,1.2,1.2,0,0,1-1.07.44h-.29l-.24,0v-.81a1.85,1.85,0,0,0,.33.08l.18,0a.69.69,0,0,0,.36-.08.9.9,0,0,0,.19-.2,4.14,4.14,0,0,0,.18-.4l.22-.54L371.65,194h1l1.4,4.26Z"/>
      <path class="cls-4" d="M377.37,192.5h.89V194h.83v.72h-.83v3.41a.38.38,0,0,0,.18.37.9.9,0,0,0,.34,0h.14l.17,0v.7a1.7,1.7,0,0,1-.31.06,2.06,2.06,0,0,1-.36,0,.93.93,0,0,1-.83-.31,1.37,1.37,0,0,1-.22-.82v-3.46h-.71V194h.71Z"/>
      <path class="cls-4" d="M383.2,194.1a2,2,0,0,1,.79.68,2.27,2.27,0,0,1,.35.92,6.25,6.25,0,0,1,.08,1.16h-3.81a2.26,2.26,0,0,0,.38,1.28,1.24,1.24,0,0,0,1.08.48,1.38,1.38,0,0,0,1.09-.46,1.49,1.49,0,0,0,.32-.61h.86a1.68,1.68,0,0,1-.22.64,2.24,2.24,0,0,1-.43.58,2.07,2.07,0,0,1-1,.53,3,3,0,0,1-.71.08,2.18,2.18,0,0,1-1.64-.71,2.79,2.79,0,0,1-.68-2,3,3,0,0,1,.68-2.05,2.26,2.26,0,0,1,1.78-.79A2.41,2.41,0,0,1,383.2,194.1Zm.31,2.06a2.24,2.24,0,0,0-.24-.92,1.27,1.27,0,0,0-1.2-.63,1.35,1.35,0,0,0-1,.44,1.68,1.68,0,0,0-.43,1.11Z"/>
      <path class="cls-4" d="M388.83,197.55a1.21,1.21,0,0,0,.23.67,1.38,1.38,0,0,0,1.17.43,1.79,1.79,0,0,0,.88-.21.72.72,0,0,0,.38-.66.54.54,0,0,0-.3-.51,3.08,3.08,0,0,0-.77-.25l-.71-.18a3.35,3.35,0,0,1-1-.37,1.13,1.13,0,0,1-.58-1,1.49,1.49,0,0,1,.55-1.2,2.19,2.19,0,0,1,1.45-.46,2,2,0,0,1,1.73.7,1.47,1.47,0,0,1,.32.94h-.83a1.06,1.06,0,0,0-.21-.53,1.41,1.41,0,0,0-1.08-.35,1.27,1.27,0,0,0-.77.19.6.6,0,0,0-.26.5.62.62,0,0,0,.34.55,2.07,2.07,0,0,0,.59.21l.59.14a4.5,4.5,0,0,1,1.29.45,1.15,1.15,0,0,1,.52,1.06,1.6,1.6,0,0,1-.54,1.2,2.29,2.29,0,0,1-1.63.51,2.24,2.24,0,0,1-1.68-.53,2,2,0,0,1-.52-1.31Z"/>
      <path class="cls-4" d="M393.49,192.5h.88V194h.84v.72h-.84v3.41a.38.38,0,0,0,.19.37.9.9,0,0,0,.34,0H395l.17,0v.7a1.65,1.65,0,0,1-.32.06,1.89,1.89,0,0,1-.35,0,.93.93,0,0,1-.83-.31,1.37,1.37,0,0,1-.22-.82v-3.46h-.71V194h.71Z"/>
      <path class="cls-4" d="M399.88,194.48a2.65,2.65,0,0,1,.69,2,3.41,3.41,0,0,1-.61,2.09,2.21,2.21,0,0,1-1.9.83,2.16,2.16,0,0,1-1.7-.73,2.9,2.9,0,0,1-.63-2,3.1,3.1,0,0,1,.67-2.1,2.21,2.21,0,0,1,1.78-.78A2.34,2.34,0,0,1,399.88,194.48Zm-.55,3.48a3.37,3.37,0,0,0,.32-1.47,2.55,2.55,0,0,0-.23-1.19,1.3,1.3,0,0,0-1.26-.72,1.23,1.23,0,0,0-1.16.61,2.87,2.87,0,0,0-.37,1.48,2.5,2.5,0,0,0,.37,1.39,1.27,1.27,0,0,0,1.15.56A1.19,1.19,0,0,0,399.33,198Z"/>
      <path class="cls-4" d="M401.67,194h.84v.9a2.15,2.15,0,0,1,.5-.64,1.33,1.33,0,0,1,.92-.38H404l.2,0v.92h-.29a1.25,1.25,0,0,0-1,.43,1.47,1.47,0,0,0-.36,1v3h-.88Z"/>
      <path class="cls-4" d="M408.21,194.1a2,2,0,0,1,.79.68,2.27,2.27,0,0,1,.35.92,6.25,6.25,0,0,1,.08,1.16h-3.81a2.26,2.26,0,0,0,.38,1.28,1.24,1.24,0,0,0,1.08.48,1.38,1.38,0,0,0,1.09-.46,1.49,1.49,0,0,0,.32-.61h.86a1.68,1.68,0,0,1-.22.64,2.24,2.24,0,0,1-.43.58,2.07,2.07,0,0,1-1,.53,3,3,0,0,1-.71.08,2.18,2.18,0,0,1-1.64-.71,2.79,2.79,0,0,1-.68-2,3,3,0,0,1,.68-2.05,2.26,2.26,0,0,1,1.78-.79A2.41,2.41,0,0,1,408.21,194.1Zm.31,2.06a2.24,2.24,0,0,0-.24-.92,1.27,1.27,0,0,0-1.2-.63,1.35,1.35,0,0,0-1,.44,1.68,1.68,0,0,0-.43,1.11Z"/>
      <path class="cls-4" d="M413.41,194.12a2.23,2.23,0,0,1,.53.51V192h.85v7.2H414v-.73a1.87,1.87,0,0,1-.73.7,2.11,2.11,0,0,1-.95.22,1.93,1.93,0,0,1-1.51-.74,2.85,2.85,0,0,1-.64-1.95,3.33,3.33,0,0,1,.58-2,1.9,1.9,0,0,1,1.66-.84A1.83,1.83,0,0,1,413.41,194.12Zm-2,3.92a1.25,1.25,0,0,0,1.14.57,1.21,1.21,0,0,0,1-.53,2.48,2.48,0,0,0,.39-1.5,2.3,2.3,0,0,0-.4-1.47,1.27,1.27,0,0,0-1-.48,1.3,1.3,0,0,0-1.07.51,2.31,2.31,0,0,0-.41,1.5A2.62,2.62,0,0,0,411.45,198Z"/>
      <path class="cls-4" d="M418.88,192h.89v1h-.89Zm0,2h.89v5.21h-.89Z"/>
      <path class="cls-4" d="M421.1,194h.84v.74a2.48,2.48,0,0,1,.78-.66,2.18,2.18,0,0,1,.93-.2,1.52,1.52,0,0,1,1.5.78,2.8,2.8,0,0,1,.22,1.22v3.35h-.9v-3.3a1.89,1.89,0,0,0-.14-.77.87.87,0,0,0-.85-.49,1.74,1.74,0,0,0-.51.07,1.33,1.33,0,0,0-.64.43,1.3,1.3,0,0,0-.28.53,3.28,3.28,0,0,0-.07.79v2.74h-.88Z"/>
      <path class="cls-4" d="M429.37,192h.85v2.61a2,2,0,0,1,1.57-.78,2.06,2.06,0,0,1,1.59.68,2.8,2.8,0,0,1,.61,2,3.43,3.43,0,0,1-.6,2.07,2,2,0,0,1-1.68.82,1.77,1.77,0,0,1-1-.29,2.8,2.8,0,0,1-.52-.55v.67h-.81Zm3.36,6a2.72,2.72,0,0,0,.35-1.49,2.43,2.43,0,0,0-.35-1.37,1.18,1.18,0,0,0-1.05-.54,1.47,1.47,0,0,0-1.05.44,2,2,0,0,0-.46,1.47,3.25,3.25,0,0,0,.19,1.19,1.29,1.29,0,0,0,1.3.87A1.18,1.18,0,0,0,432.73,198Z"/>
      <path class="cls-4" d="M438.27,194h1l-.82,2.3c-.32.9-.59,1.63-.8,2.2a15.78,15.78,0,0,1-1.07,2.43,1.22,1.22,0,0,1-1.08.44h-.28l-.25,0v-.81a1.85,1.85,0,0,0,.33.08l.18,0a.69.69,0,0,0,.36-.08.72.72,0,0,0,.19-.2,4.14,4.14,0,0,0,.18-.4l.22-.54L434.46,194h1l1.4,4.26Z"/>
      <path class="cls-4" d="M440.18,192.5h.89V194h.83v.72h-.83v3.41a.38.38,0,0,0,.18.37,1,1,0,0,0,.35,0h.13l.17,0v.7a1.55,1.55,0,0,1-.31.06,2.06,2.06,0,0,1-.36,0,1,1,0,0,1-.83-.31,1.37,1.37,0,0,1-.22-.82v-3.46h-.71V194h.71Z"/>
      <path class="cls-4" d="M446,194.1a2,2,0,0,1,.79.68,2.27,2.27,0,0,1,.35.92,6.25,6.25,0,0,1,.08,1.16h-3.8a2.26,2.26,0,0,0,.37,1.28,1.24,1.24,0,0,0,1.08.48,1.36,1.36,0,0,0,1.09-.46,1.49,1.49,0,0,0,.32-.61h.87a1.92,1.92,0,0,1-.23.64,2.24,2.24,0,0,1-.43.58,2,2,0,0,1-1,.53,3.11,3.11,0,0,1-.72.08,2.2,2.2,0,0,1-1.64-.71,2.79,2.79,0,0,1-.68-2,3,3,0,0,1,.68-2.05,2.27,2.27,0,0,1,1.78-.79A2.38,2.38,0,0,1,446,194.1Zm.32,2.06a2.4,2.4,0,0,0-.25-.92,1.27,1.27,0,0,0-1.2-.63,1.31,1.31,0,0,0-1,.44,1.63,1.63,0,0,0-.43,1.11Z"/>
      <path class="cls-4" d="M455.15,193.32a5,5,0,0,1,.46,2.36,5.76,5.76,0,0,1-.42,2.36,2.08,2.08,0,0,1-2,1.34,2,2,0,0,1-1.88-1.09,5,5,0,0,1-.51-2.45,5.94,5.94,0,0,1,.31-2.05,2.1,2.1,0,0,1,2.08-1.59A2.07,2.07,0,0,1,455.15,193.32Zm-.89,4.65a4.34,4.34,0,0,0,.41-2.25,5.42,5.42,0,0,0-.3-2,1.11,1.11,0,0,0-1.14-.77,1.19,1.19,0,0,0-1.13.73,5,5,0,0,0-.36,2.15,5.1,5.1,0,0,0,.23,1.72,1.25,1.25,0,0,0,2.29.38Z"/>
    </g>
    <text class="cls-5" transform="translate(77.5 160.2)">Bytes</text>
    <text class="cls-5" transform="translate(365.5 160.2)">Bytes</text>
    <text class="cls-5" transform="translate(221.21 160.2)">Value</text>
  </g>
</svg>
